<?xml version="1.0" encoding="utf-8" standalone="no"?>
<!DOCTYPE svg PUBLIC "-//W3C//DTD SVG 1.1//EN"
  "http://www.w3.org/Graphics/SVG/1.1/DTD/svg11.dtd">
<svg xmlns:xlink="http://www.w3.org/1999/xlink" width="1644.48pt" height="977.717344pt" viewBox="0 0 1644.48 977.717344" xmlns="http://www.w3.org/2000/svg" version="1.1">
 <metadata>
  <rdf:RDF xmlns:dc="http://purl.org/dc/elements/1.1/" xmlns:cc="http://creativecommons.org/ns#" xmlns:rdf="http://www.w3.org/1999/02/22-rdf-syntax-ns#">
   <cc:Work>
    <dc:type rdf:resource="http://purl.org/dc/dcmitype/StillImage"/>
    <dc:date>2026-05-09T18:25:09.367959</dc:date>
    <dc:format>image/svg+xml</dc:format>
    <dc:creator>
     <cc:Agent>
      <dc:title>Matplotlib v3.10.9, https://matplotlib.org/</dc:title>
     </cc:Agent>
    </dc:creator>
   </cc:Work>
  </rdf:RDF>
 </metadata>
 <defs>
  <style type="text/css">*{stroke-linejoin: round; stroke-linecap: butt}</style>
 </defs>
 <g id="figure_1">
  <g id="patch_1">
   <path d="M 0 977.717344 
L 1644.48 977.717344 
L 1644.48 0 
L 0 0 
z
" style="fill: #ffffff"/>
  </g>
  <g id="axes_1">
   <g id="patch_2">
    <path d="M 346.204685 673.097213 
L 525.448542 673.097213 
L 525.448542 440.413291 
L 346.204685 440.413291 
z
" clip-path="url(#pf457fc84c1)" style="fill: #edf2f7; opacity: 0.48; stroke: #a0aec0; stroke-width: 1.1; stroke-linejoin: miter"/>
   </g>
   <g id="patch_3">
    <path d="M 823.538869 324.987409 
L 1002.782725 324.987409 
L 1002.782725 92.303488 
L 823.538869 92.303488 
z
" clip-path="url(#pf457fc84c1)" style="fill: #edf2f7; opacity: 0.48; stroke: #a0aec0; stroke-width: 1.1; stroke-linejoin: miter"/>
   </g>
   <g id="patch_4">
    <path d="M 823.538869 525.506799 
L 1002.782725 525.506799 
L 1002.782725 292.822878 
L 823.538869 292.822878 
z
" clip-path="url(#pf457fc84c1)" style="fill: #edf2f7; opacity: 0.48; stroke: #a0aec0; stroke-width: 1.1; stroke-linejoin: miter"/>
   </g>
   <g id="patch_5">
    <path d="M 823.538869 726.026189 
L 1002.782725 726.026189 
L 1002.782725 493.342267 
L 823.538869 493.342267 
z
" clip-path="url(#pf457fc84c1)" style="fill: #edf2f7; opacity: 0.48; stroke: #a0aec0; stroke-width: 1.1; stroke-linejoin: miter"/>
   </g>
   <g id="patch_6">
    <path d="M 823.538869 926.545579 
L 1002.782725 926.545579 
L 1002.782725 693.861657 
L 823.538869 693.861657 
z
" clip-path="url(#pf457fc84c1)" style="fill: #edf2f7; opacity: 0.48; stroke: #a0aec0; stroke-width: 1.1; stroke-linejoin: miter"/>
   </g>
   <g id="patch_7">
    <path d="M 1406.730837 878.909501 
L 1543.112032 878.909501 
L 1543.112032 793.408847 
L 1406.730837 793.408847 
z
" clip-path="url(#pf457fc84c1)" style="fill: url(#hbc0fce0382); opacity: 0.25; stroke-dasharray: 4.44,1.92; stroke-dashoffset: 0; stroke: #5f7f95; stroke-width: 1.2; stroke-linejoin: miter"/>
   </g>
   <g id="text_1">
    <!-- coordinator container -->
    <g style="fill: #4a5568" transform="translate(351.400159 458.706421) scale(0.08 -0.08)">
     <defs>
      <path id="DejaVuSans-63" d="M 3122 3366 
L 3122 2828 
Q 2878 2963 2633 3030 
Q 2388 3097 2138 3097 
Q 1578 3097 1268 2742 
Q 959 2388 959 1747 
Q 959 1106 1268 751 
Q 1578 397 2138 397 
Q 2388 397 2633 464 
Q 2878 531 3122 666 
L 3122 134 
Q 2881 22 2623 -34 
Q 2366 -91 2075 -91 
Q 1284 -91 818 406 
Q 353 903 353 1747 
Q 353 2603 823 3093 
Q 1294 3584 2113 3584 
Q 2378 3584 2631 3529 
Q 2884 3475 3122 3366 
z
" transform="scale(0.015625)"/>
      <path id="DejaVuSans-6f" d="M 1959 3097 
Q 1497 3097 1228 2736 
Q 959 2375 959 1747 
Q 959 1119 1226 758 
Q 1494 397 1959 397 
Q 2419 397 2687 759 
Q 2956 1122 2956 1747 
Q 2956 2369 2687 2733 
Q 2419 3097 1959 3097 
z
M 1959 3584 
Q 2709 3584 3137 3096 
Q 3566 2609 3566 1747 
Q 3566 888 3137 398 
Q 2709 -91 1959 -91 
Q 1206 -91 779 398 
Q 353 888 353 1747 
Q 353 2609 779 3096 
Q 1206 3584 1959 3584 
z
" transform="scale(0.015625)"/>
      <path id="DejaVuSans-72" d="M 2631 2963 
Q 2534 3019 2420 3045 
Q 2306 3072 2169 3072 
Q 1681 3072 1420 2755 
Q 1159 2438 1159 1844 
L 1159 0 
L 581 0 
L 581 3500 
L 1159 3500 
L 1159 2956 
Q 1341 3275 1631 3429 
Q 1922 3584 2338 3584 
Q 2397 3584 2469 3576 
Q 2541 3569 2628 3553 
L 2631 2963 
z
" transform="scale(0.015625)"/>
      <path id="DejaVuSans-64" d="M 2906 2969 
L 2906 4863 
L 3481 4863 
L 3481 0 
L 2906 0 
L 2906 525 
Q 2725 213 2448 61 
Q 2172 -91 1784 -91 
Q 1150 -91 751 415 
Q 353 922 353 1747 
Q 353 2572 751 3078 
Q 1150 3584 1784 3584 
Q 2172 3584 2448 3432 
Q 2725 3281 2906 2969 
z
M 947 1747 
Q 947 1113 1208 752 
Q 1469 391 1925 391 
Q 2381 391 2643 752 
Q 2906 1113 2906 1747 
Q 2906 2381 2643 2742 
Q 2381 3103 1925 3103 
Q 1469 3103 1208 2742 
Q 947 2381 947 1747 
z
" transform="scale(0.015625)"/>
      <path id="DejaVuSans-69" d="M 603 3500 
L 1178 3500 
L 1178 0 
L 603 0 
L 603 3500 
z
M 603 4863 
L 1178 4863 
L 1178 4134 
L 603 4134 
L 603 4863 
z
" transform="scale(0.015625)"/>
      <path id="DejaVuSans-6e" d="M 3513 2113 
L 3513 0 
L 2938 0 
L 2938 2094 
Q 2938 2591 2744 2837 
Q 2550 3084 2163 3084 
Q 1697 3084 1428 2787 
Q 1159 2491 1159 1978 
L 1159 0 
L 581 0 
L 581 3500 
L 1159 3500 
L 1159 2956 
Q 1366 3272 1645 3428 
Q 1925 3584 2291 3584 
Q 2894 3584 3203 3211 
Q 3513 2838 3513 2113 
z
" transform="scale(0.015625)"/>
      <path id="DejaVuSans-61" d="M 2194 1759 
Q 1497 1759 1228 1600 
Q 959 1441 959 1056 
Q 959 750 1161 570 
Q 1363 391 1709 391 
Q 2188 391 2477 730 
Q 2766 1069 2766 1631 
L 2766 1759 
L 2194 1759 
z
M 3341 1997 
L 3341 0 
L 2766 0 
L 2766 531 
Q 2569 213 2275 61 
Q 1981 -91 1556 -91 
Q 1019 -91 701 211 
Q 384 513 384 1019 
Q 384 1609 779 1909 
Q 1175 2209 1959 2209 
L 2766 2209 
L 2766 2266 
Q 2766 2663 2505 2880 
Q 2244 3097 1772 3097 
Q 1472 3097 1187 3025 
Q 903 2953 641 2809 
L 641 3341 
Q 956 3463 1253 3523 
Q 1550 3584 1831 3584 
Q 2591 3584 2966 3190 
Q 3341 2797 3341 1997 
z
" transform="scale(0.015625)"/>
      <path id="DejaVuSans-74" d="M 1172 4494 
L 1172 3500 
L 2356 3500 
L 2356 3053 
L 1172 3053 
L 1172 1153 
Q 1172 725 1289 603 
Q 1406 481 1766 481 
L 2356 481 
L 2356 0 
L 1766 0 
Q 1100 0 847 248 
Q 594 497 594 1153 
L 594 3053 
L 172 3053 
L 172 3500 
L 594 3500 
L 594 4494 
L 1172 4494 
z
" transform="scale(0.015625)"/>
      <path id="DejaVuSans-20" transform="scale(0.015625)"/>
      <path id="DejaVuSans-65" d="M 3597 1894 
L 3597 1613 
L 953 1613 
Q 991 1019 1311 708 
Q 1631 397 2203 397 
Q 2534 397 2845 478 
Q 3156 559 3463 722 
L 3463 178 
Q 3153 47 2828 -22 
Q 2503 -91 2169 -91 
Q 1331 -91 842 396 
Q 353 884 353 1716 
Q 353 2575 817 3079 
Q 1281 3584 2069 3584 
Q 2775 3584 3186 3129 
Q 3597 2675 3597 1894 
z
M 3022 2063 
Q 3016 2534 2758 2815 
Q 2500 3097 2075 3097 
Q 1594 3097 1305 2825 
Q 1016 2553 972 2059 
L 3022 2063 
z
" transform="scale(0.015625)"/>
     </defs>
     <use xlink:href="#DejaVuSans-63"/>
     <use xlink:href="#DejaVuSans-6f" transform="translate(54.980469 0)"/>
     <use xlink:href="#DejaVuSans-6f" transform="translate(116.162109 0)"/>
     <use xlink:href="#DejaVuSans-72" transform="translate(177.34375 0)"/>
     <use xlink:href="#DejaVuSans-64" transform="translate(216.707031 0)"/>
     <use xlink:href="#DejaVuSans-69" transform="translate(280.183594 0)"/>
     <use xlink:href="#DejaVuSans-6e" transform="translate(307.966797 0)"/>
     <use xlink:href="#DejaVuSans-61" transform="translate(371.345703 0)"/>
     <use xlink:href="#DejaVuSans-74" transform="translate(432.625 0)"/>
     <use xlink:href="#DejaVuSans-6f" transform="translate(471.833984 0)"/>
     <use xlink:href="#DejaVuSans-72" transform="translate(533.015625 0)"/>
     <use xlink:href="#DejaVuSans-20" transform="translate(574.128906 0)"/>
     <use xlink:href="#DejaVuSans-63" transform="translate(605.916016 0)"/>
     <use xlink:href="#DejaVuSans-6f" transform="translate(660.896484 0)"/>
     <use xlink:href="#DejaVuSans-6e" transform="translate(722.078125 0)"/>
     <use xlink:href="#DejaVuSans-74" transform="translate(785.457031 0)"/>
     <use xlink:href="#DejaVuSans-61" transform="translate(824.666016 0)"/>
     <use xlink:href="#DejaVuSans-69" transform="translate(885.945312 0)"/>
     <use xlink:href="#DejaVuSans-6e" transform="translate(913.728516 0)"/>
     <use xlink:href="#DejaVuSans-65" transform="translate(977.107422 0)"/>
     <use xlink:href="#DejaVuSans-72" transform="translate(1038.630859 0)"/>
    </g>
   </g>
   <g id="text_2">
    <!-- planner container -->
    <g style="fill: #4a5568" transform="translate(828.734343 110.596617) scale(0.08 -0.08)">
     <defs>
      <path id="DejaVuSans-70" d="M 1159 525 
L 1159 -1331 
L 581 -1331 
L 581 3500 
L 1159 3500 
L 1159 2969 
Q 1341 3281 1617 3432 
Q 1894 3584 2278 3584 
Q 2916 3584 3314 3078 
Q 3713 2572 3713 1747 
Q 3713 922 3314 415 
Q 2916 -91 2278 -91 
Q 1894 -91 1617 61 
Q 1341 213 1159 525 
z
M 3116 1747 
Q 3116 2381 2855 2742 
Q 2594 3103 2138 3103 
Q 1681 3103 1420 2742 
Q 1159 2381 1159 1747 
Q 1159 1113 1420 752 
Q 1681 391 2138 391 
Q 2594 391 2855 752 
Q 3116 1113 3116 1747 
z
" transform="scale(0.015625)"/>
      <path id="DejaVuSans-6c" d="M 603 4863 
L 1178 4863 
L 1178 0 
L 603 0 
L 603 4863 
z
" transform="scale(0.015625)"/>
     </defs>
     <use xlink:href="#DejaVuSans-70"/>
     <use xlink:href="#DejaVuSans-6c" transform="translate(63.476562 0)"/>
     <use xlink:href="#DejaVuSans-61" transform="translate(91.259766 0)"/>
     <use xlink:href="#DejaVuSans-6e" transform="translate(152.539062 0)"/>
     <use xlink:href="#DejaVuSans-6e" transform="translate(215.917969 0)"/>
     <use xlink:href="#DejaVuSans-65" transform="translate(279.296875 0)"/>
     <use xlink:href="#DejaVuSans-72" transform="translate(340.820312 0)"/>
     <use xlink:href="#DejaVuSans-20" transform="translate(381.933594 0)"/>
     <use xlink:href="#DejaVuSans-63" transform="translate(413.720703 0)"/>
     <use xlink:href="#DejaVuSans-6f" transform="translate(468.701172 0)"/>
     <use xlink:href="#DejaVuSans-6e" transform="translate(529.882812 0)"/>
     <use xlink:href="#DejaVuSans-74" transform="translate(593.261719 0)"/>
     <use xlink:href="#DejaVuSans-61" transform="translate(632.470703 0)"/>
     <use xlink:href="#DejaVuSans-69" transform="translate(693.75 0)"/>
     <use xlink:href="#DejaVuSans-6e" transform="translate(721.533203 0)"/>
     <use xlink:href="#DejaVuSans-65" transform="translate(784.912109 0)"/>
     <use xlink:href="#DejaVuSans-72" transform="translate(846.435547 0)"/>
    </g>
   </g>
   <g id="text_3">
    <!-- local container -->
    <g style="fill: #4a5568" transform="translate(828.734343 311.116007) scale(0.08 -0.08)">
     <use xlink:href="#DejaVuSans-6c"/>
     <use xlink:href="#DejaVuSans-6f" transform="translate(27.783203 0)"/>
     <use xlink:href="#DejaVuSans-63" transform="translate(88.964844 0)"/>
     <use xlink:href="#DejaVuSans-61" transform="translate(143.945312 0)"/>
     <use xlink:href="#DejaVuSans-6c" transform="translate(205.224609 0)"/>
     <use xlink:href="#DejaVuSans-20" transform="translate(233.007812 0)"/>
     <use xlink:href="#DejaVuSans-63" transform="translate(264.794922 0)"/>
     <use xlink:href="#DejaVuSans-6f" transform="translate(319.775391 0)"/>
     <use xlink:href="#DejaVuSans-6e" transform="translate(380.957031 0)"/>
     <use xlink:href="#DejaVuSans-74" transform="translate(444.335938 0)"/>
     <use xlink:href="#DejaVuSans-61" transform="translate(483.544922 0)"/>
     <use xlink:href="#DejaVuSans-69" transform="translate(544.824219 0)"/>
     <use xlink:href="#DejaVuSans-6e" transform="translate(572.607422 0)"/>
     <use xlink:href="#DejaVuSans-65" transform="translate(635.986328 0)"/>
     <use xlink:href="#DejaVuSans-72" transform="translate(697.509766 0)"/>
    </g>
   </g>
   <g id="text_4">
    <!-- language container -->
    <g style="fill: #4a5568" transform="translate(828.734343 511.635397) scale(0.08 -0.08)">
     <defs>
      <path id="DejaVuSans-67" d="M 2906 1791 
Q 2906 2416 2648 2759 
Q 2391 3103 1925 3103 
Q 1463 3103 1205 2759 
Q 947 2416 947 1791 
Q 947 1169 1205 825 
Q 1463 481 1925 481 
Q 2391 481 2648 825 
Q 2906 1169 2906 1791 
z
M 3481 434 
Q 3481 -459 3084 -895 
Q 2688 -1331 1869 -1331 
Q 1566 -1331 1297 -1286 
Q 1028 -1241 775 -1147 
L 775 -588 
Q 1028 -725 1275 -790 
Q 1522 -856 1778 -856 
Q 2344 -856 2625 -561 
Q 2906 -266 2906 331 
L 2906 616 
Q 2728 306 2450 153 
Q 2172 0 1784 0 
Q 1141 0 747 490 
Q 353 981 353 1791 
Q 353 2603 747 3093 
Q 1141 3584 1784 3584 
Q 2172 3584 2450 3431 
Q 2728 3278 2906 2969 
L 2906 3500 
L 3481 3500 
L 3481 434 
z
" transform="scale(0.015625)"/>
      <path id="DejaVuSans-75" d="M 544 1381 
L 544 3500 
L 1119 3500 
L 1119 1403 
Q 1119 906 1312 657 
Q 1506 409 1894 409 
Q 2359 409 2629 706 
Q 2900 1003 2900 1516 
L 2900 3500 
L 3475 3500 
L 3475 0 
L 2900 0 
L 2900 538 
Q 2691 219 2414 64 
Q 2138 -91 1772 -91 
Q 1169 -91 856 284 
Q 544 659 544 1381 
z
M 1991 3584 
L 1991 3584 
z
" transform="scale(0.015625)"/>
     </defs>
     <use xlink:href="#DejaVuSans-6c"/>
     <use xlink:href="#DejaVuSans-61" transform="translate(27.783203 0)"/>
     <use xlink:href="#DejaVuSans-6e" transform="translate(89.0625 0)"/>
     <use xlink:href="#DejaVuSans-67" transform="translate(152.441406 0)"/>
     <use xlink:href="#DejaVuSans-75" transform="translate(215.917969 0)"/>
     <use xlink:href="#DejaVuSans-61" transform="translate(279.296875 0)"/>
     <use xlink:href="#DejaVuSans-67" transform="translate(340.576172 0)"/>
     <use xlink:href="#DejaVuSans-65" transform="translate(404.052734 0)"/>
     <use xlink:href="#DejaVuSans-20" transform="translate(465.576172 0)"/>
     <use xlink:href="#DejaVuSans-63" transform="translate(497.363281 0)"/>
     <use xlink:href="#DejaVuSans-6f" transform="translate(552.34375 0)"/>
     <use xlink:href="#DejaVuSans-6e" transform="translate(613.525391 0)"/>
     <use xlink:href="#DejaVuSans-74" transform="translate(676.904297 0)"/>
     <use xlink:href="#DejaVuSans-61" transform="translate(716.113281 0)"/>
     <use xlink:href="#DejaVuSans-69" transform="translate(777.392578 0)"/>
     <use xlink:href="#DejaVuSans-6e" transform="translate(805.175781 0)"/>
     <use xlink:href="#DejaVuSans-65" transform="translate(868.554688 0)"/>
     <use xlink:href="#DejaVuSans-72" transform="translate(930.078125 0)"/>
    </g>
   </g>
   <g id="text_5">
    <!-- summary container -->
    <g style="fill: #4a5568" transform="translate(828.734343 712.154787) scale(0.08 -0.08)">
     <defs>
      <path id="DejaVuSans-73" d="M 2834 3397 
L 2834 2853 
Q 2591 2978 2328 3040 
Q 2066 3103 1784 3103 
Q 1356 3103 1142 2972 
Q 928 2841 928 2578 
Q 928 2378 1081 2264 
Q 1234 2150 1697 2047 
L 1894 2003 
Q 2506 1872 2764 1633 
Q 3022 1394 3022 966 
Q 3022 478 2636 193 
Q 2250 -91 1575 -91 
Q 1294 -91 989 -36 
Q 684 19 347 128 
L 347 722 
Q 666 556 975 473 
Q 1284 391 1588 391 
Q 1994 391 2212 530 
Q 2431 669 2431 922 
Q 2431 1156 2273 1281 
Q 2116 1406 1581 1522 
L 1381 1569 
Q 847 1681 609 1914 
Q 372 2147 372 2553 
Q 372 3047 722 3315 
Q 1072 3584 1716 3584 
Q 2034 3584 2315 3537 
Q 2597 3491 2834 3397 
z
" transform="scale(0.015625)"/>
      <path id="DejaVuSans-6d" d="M 3328 2828 
Q 3544 3216 3844 3400 
Q 4144 3584 4550 3584 
Q 5097 3584 5394 3201 
Q 5691 2819 5691 2113 
L 5691 0 
L 5113 0 
L 5113 2094 
Q 5113 2597 4934 2840 
Q 4756 3084 4391 3084 
Q 3944 3084 3684 2787 
Q 3425 2491 3425 1978 
L 3425 0 
L 2847 0 
L 2847 2094 
Q 2847 2600 2669 2842 
Q 2491 3084 2119 3084 
Q 1678 3084 1418 2786 
Q 1159 2488 1159 1978 
L 1159 0 
L 581 0 
L 581 3500 
L 1159 3500 
L 1159 2956 
Q 1356 3278 1631 3431 
Q 1906 3584 2284 3584 
Q 2666 3584 2933 3390 
Q 3200 3197 3328 2828 
z
" transform="scale(0.015625)"/>
      <path id="DejaVuSans-79" d="M 2059 -325 
Q 1816 -950 1584 -1140 
Q 1353 -1331 966 -1331 
L 506 -1331 
L 506 -850 
L 844 -850 
Q 1081 -850 1212 -737 
Q 1344 -625 1503 -206 
L 1606 56 
L 191 3500 
L 800 3500 
L 1894 763 
L 2988 3500 
L 3597 3500 
L 2059 -325 
z
" transform="scale(0.015625)"/>
     </defs>
     <use xlink:href="#DejaVuSans-73"/>
     <use xlink:href="#DejaVuSans-75" transform="translate(52.099609 0)"/>
     <use xlink:href="#DejaVuSans-6d" transform="translate(115.478516 0)"/>
     <use xlink:href="#DejaVuSans-6d" transform="translate(212.890625 0)"/>
     <use xlink:href="#DejaVuSans-61" transform="translate(310.302734 0)"/>
     <use xlink:href="#DejaVuSans-72" transform="translate(371.582031 0)"/>
     <use xlink:href="#DejaVuSans-79" transform="translate(412.695312 0)"/>
     <use xlink:href="#DejaVuSans-20" transform="translate(471.875 0)"/>
     <use xlink:href="#DejaVuSans-63" transform="translate(503.662109 0)"/>
     <use xlink:href="#DejaVuSans-6f" transform="translate(558.642578 0)"/>
     <use xlink:href="#DejaVuSans-6e" transform="translate(619.824219 0)"/>
     <use xlink:href="#DejaVuSans-74" transform="translate(683.203125 0)"/>
     <use xlink:href="#DejaVuSans-61" transform="translate(722.412109 0)"/>
     <use xlink:href="#DejaVuSans-69" transform="translate(783.691406 0)"/>
     <use xlink:href="#DejaVuSans-6e" transform="translate(811.474609 0)"/>
     <use xlink:href="#DejaVuSans-65" transform="translate(874.853516 0)"/>
     <use xlink:href="#DejaVuSans-72" transform="translate(936.376953 0)"/>
    </g>
   </g>
   <g id="patch_8">
    <path d="M 171.708746 512.980361 
Q 299.445378 520.158764 424.782022 513.115238 
" clip-path="url(#pf457fc84c1)" style="fill: none; stroke: #1a365d; stroke-opacity: 0.95; stroke-width: 2.15; stroke-linecap: round"/>
    <path d="M 417.801966 510.102131 
L 424.782022 513.115238 
L 418.183503 516.891418 
z
" clip-path="url(#pf457fc84c1)" style="fill: #1a365d; fill-opacity: 0.95; stroke: #1a365d; stroke-opacity: 0.95; stroke-width: 2.15; stroke-linecap: round"/>
   </g>
   <g id="patch_9">
    <path d="M 443.678214 508.825021 
Q 708.316808 384.803918 905.797172 172.326416 
" clip-path="url(#pf457fc84c1)" style="fill: none; stroke: #2d3748; stroke-opacity: 0.88; stroke-width: 1.95; stroke-linecap: round"/>
    <path d="M 898.677395 174.992644 
L 905.797172 172.326416 
L 903.658288 179.621975 
z
" clip-path="url(#pf457fc84c1)" style="fill: #2d3748; fill-opacity: 0.88; stroke: #2d3748; stroke-opacity: 0.88; stroke-width: 1.95; stroke-linecap: round"/>
   </g>
   <g id="patch_10">
    <path d="M 444.437566 511.56411 
Q 688.760367 484.82033 903.615735 370.019936 
" clip-path="url(#pf457fc84c1)" style="fill: none; stroke: #2d3748; stroke-opacity: 0.88; stroke-width: 1.95; stroke-linecap: round"/>
    <path d="M 896.01589 370.225741 
L 903.615735 370.019936 
L 899.220472 376.223295 
z
" clip-path="url(#pf457fc84c1)" style="fill: #2d3748; fill-opacity: 0.88; stroke: #2d3748; stroke-opacity: 0.88; stroke-width: 1.95; stroke-linecap: round"/>
   </g>
   <g id="patch_11">
    <path d="M 444.087904 515.073747 
Q 669.384378 585.016739 902.357539 566.30444 
" clip-path="url(#pf457fc84c1)" style="fill: none; stroke: #2d3748; stroke-opacity: 0.88; stroke-width: 1.95; stroke-linecap: round"/>
    <path d="M 895.307158 563.459774 
L 902.357539 566.30444 
L 895.851577 570.237946 
z
" clip-path="url(#pf457fc84c1)" style="fill: #2d3748; fill-opacity: 0.88; stroke: #2d3748; stroke-opacity: 0.88; stroke-width: 1.95; stroke-linecap: round"/>
   </g>
   <g id="patch_12">
    <path d="M 442.547783 517.94093 
Q 649.934877 685.459397 902.789381 762.782327 
" clip-path="url(#pf457fc84c1)" style="fill: none; stroke: #2d3748; stroke-opacity: 0.88; stroke-width: 1.95; stroke-linecap: round"/>
    <path d="M 897.280905 757.542413 
L 902.789381 762.782327 
L 895.292365 764.04516 
z
" clip-path="url(#pf457fc84c1)" style="fill: #2d3748; fill-opacity: 0.88; stroke: #2d3748; stroke-opacity: 0.88; stroke-width: 1.95; stroke-linecap: round"/>
   </g>
   <g id="patch_13">
    <path d="M 436.604991 521.101682 
Q 439.476073 556.756801 436.734873 590.796003 
" clip-path="url(#pf457fc84c1)" style="fill: none; stroke-dasharray: 1.45,2.3925; stroke-dashoffset: 0; stroke: #6b46c1; stroke-opacity: 0.65; stroke-width: 1.45; stroke-linecap: round"/>
    <path d="M 440.669743 584.290867 
L 436.734873 590.796003 
L 433.891686 583.745025 
z
" clip-path="url(#pf457fc84c1)" style="fill: #6b46c1; fill-opacity: 0.65; stroke-dasharray: 1.45,2.3925; stroke-dashoffset: 0; stroke: #6b46c1; stroke-opacity: 0.65; stroke-width: 1.45; stroke-linecap: round"/>
   </g>
   <g id="patch_14">
    <path d="M 913.939175 172.991878 
Q 916.810256 208.646998 914.069056 242.686199 
" clip-path="url(#pf457fc84c1)" style="fill: none; stroke-dasharray: 1.45,2.3925; stroke-dashoffset: 0; stroke: #6b46c1; stroke-opacity: 0.65; stroke-width: 1.45; stroke-linecap: round"/>
    <path d="M 918.003926 236.181063 
L 914.069056 242.686199 
L 911.225869 235.635222 
z
" clip-path="url(#pf457fc84c1)" style="fill: #6b46c1; fill-opacity: 0.65; stroke-dasharray: 1.45,2.3925; stroke-dashoffset: 0; stroke: #6b46c1; stroke-opacity: 0.65; stroke-width: 1.45; stroke-linecap: round"/>
   </g>
   <g id="patch_15">
    <path d="M 913.939175 373.511268 
Q 916.810256 409.166388 914.069056 443.205589 
" clip-path="url(#pf457fc84c1)" style="fill: none; stroke-dasharray: 1.45,2.3925; stroke-dashoffset: 0; stroke: #6b46c1; stroke-opacity: 0.65; stroke-width: 1.45; stroke-linecap: round"/>
    <path d="M 918.003926 436.700453 
L 914.069056 443.205589 
L 911.225869 436.154612 
z
" clip-path="url(#pf457fc84c1)" style="fill: #6b46c1; fill-opacity: 0.65; stroke-dasharray: 1.45,2.3925; stroke-dashoffset: 0; stroke: #6b46c1; stroke-opacity: 0.65; stroke-width: 1.45; stroke-linecap: round"/>
   </g>
   <g id="patch_16">
    <path d="M 913.939175 574.030658 
Q 916.810256 609.685778 914.069056 643.724979 
" clip-path="url(#pf457fc84c1)" style="fill: none; stroke-dasharray: 1.45,2.3925; stroke-dashoffset: 0; stroke: #6b46c1; stroke-opacity: 0.65; stroke-width: 1.45; stroke-linecap: round"/>
    <path d="M 918.003926 637.219843 
L 914.069056 643.724979 
L 911.225869 636.674002 
z
" clip-path="url(#pf457fc84c1)" style="fill: #6b46c1; fill-opacity: 0.65; stroke-dasharray: 1.45,2.3925; stroke-dashoffset: 0; stroke: #6b46c1; stroke-opacity: 0.65; stroke-width: 1.45; stroke-linecap: round"/>
   </g>
   <g id="patch_17">
    <path d="M 913.939175 774.550048 
Q 916.810256 810.205168 914.069056 844.244369 
" clip-path="url(#pf457fc84c1)" style="fill: none; stroke-dasharray: 1.45,2.3925; stroke-dashoffset: 0; stroke: #6b46c1; stroke-opacity: 0.65; stroke-width: 1.45; stroke-linecap: round"/>
    <path d="M 918.003926 837.739233 
L 914.069056 844.244369 
L 911.225869 837.193391 
z
" clip-path="url(#pf457fc84c1)" style="fill: #6b46c1; fill-opacity: 0.65; stroke-dasharray: 1.45,2.3925; stroke-dashoffset: 0; stroke: #6b46c1; stroke-opacity: 0.65; stroke-width: 1.45; stroke-linecap: round"/>
   </g>
   <g id="patch_18">
    <path d="M 444.482455 512.121406 
Q 1012.771537 490.064508 1466.973185 830.181438 
" clip-path="url(#pf457fc84c1)" style="fill: none; stroke-dasharray: 4.255,1.84; stroke-dashoffset: 0; stroke: #5f7f95; stroke-opacity: 0.34; stroke-width: 1.15; stroke-linecap: round"/>
    <path d="M 1464.369269 824.983398 
L 1466.973185 830.181438 
L 1461.252403 829.145747 
z
" clip-path="url(#pf457fc84c1)" style="fill: #5f7f95; fill-opacity: 0.34; stroke-dasharray: 4.255,1.84; stroke-dashoffset: 0; stroke: #5f7f95; stroke-opacity: 0.34; stroke-width: 1.15; stroke-linecap: round"/>
   </g>
   <g id="patch_19">
    <path d="M 920.62274 168.758222 
Q 1312.730863 401.01149 1471.471099 826.829851 
" clip-path="url(#pf457fc84c1)" style="fill: none; stroke-dasharray: 4.255,1.84; stroke-dashoffset: 0; stroke: #5f7f95; stroke-opacity: 0.34; stroke-width: 1.15; stroke-linecap: round"/>
    <path d="M 1472.09093 821.04921 
L 1471.471099 826.829851 
L 1467.218485 822.865602 
z
" clip-path="url(#pf457fc84c1)" style="fill: #5f7f95; fill-opacity: 0.34; stroke-dasharray: 4.255,1.84; stroke-dashoffset: 0; stroke: #5f7f95; stroke-opacity: 0.34; stroke-width: 1.15; stroke-linecap: round"/>
   </g>
   <g id="patch_20">
    <path d="M 921.278627 367.906464 
Q 1277.004255 501.632265 1469.883769 827.585359 
" clip-path="url(#pf457fc84c1)" style="fill: none; stroke-dasharray: 4.255,1.84; stroke-dashoffset: 0; stroke: #5f7f95; stroke-opacity: 0.34; stroke-width: 1.15; stroke-linecap: round"/>
    <path d="M 1469.473215 821.786097 
L 1469.883769 827.585359 
L 1464.998027 824.434245 
z
" clip-path="url(#pf457fc84c1)" style="fill: #5f7f95; fill-opacity: 0.34; stroke-dasharray: 4.255,1.84; stroke-dashoffset: 0; stroke: #5f7f95; stroke-opacity: 0.34; stroke-width: 1.15; stroke-linecap: round"/>
   </g>
   <g id="patch_21">
    <path d="M 921.772269 566.338529 
Q 1241.520558 602.278811 1467.924081 829.097687 
" clip-path="url(#pf457fc84c1)" style="fill: none; stroke-dasharray: 4.255,1.84; stroke-dashoffset: 0; stroke: #5f7f95; stroke-opacity: 0.34; stroke-width: 1.15; stroke-linecap: round"/>
    <path d="M 1466.090659 823.580571 
L 1467.924081 829.097687 
L 1462.410335 827.254155 
z
" clip-path="url(#pf457fc84c1)" style="fill: #5f7f95; fill-opacity: 0.34; stroke-dasharray: 4.255,1.84; stroke-dashoffset: 0; stroke: #5f7f95; stroke-opacity: 0.34; stroke-width: 1.15; stroke-linecap: round"/>
   </g>
   <g id="patch_22">
    <path d="M 921.615986 764.066108 
Q 1206.323029 702.798673 1466.03131 831.702029 
" clip-path="url(#pf457fc84c1)" style="fill: none; stroke-dasharray: 4.255,1.84; stroke-dashoffset: 0; stroke: #5f7f95; stroke-opacity: 0.34; stroke-width: 1.15; stroke-linecap: round"/>
    <path d="M 1462.529417 827.061259 
L 1466.03131 831.702029 
L 1460.217558 831.719081 
z
" clip-path="url(#pf457fc84c1)" style="fill: #5f7f95; fill-opacity: 0.34; stroke-dasharray: 4.255,1.84; stroke-dashoffset: 0; stroke: #5f7f95; stroke-opacity: 0.34; stroke-width: 1.15; stroke-linecap: round"/>
   </g>
   <g id="text_6">
    <g id="patch_23">
     <path d="M 946.887125 679.789115 
L 963.855875 679.789115 
Q 965.455875 679.789115 965.455875 678.189115 
L 965.455875 670.446615 
Q 965.455875 668.846615 963.855875 668.846615 
L 946.887125 668.846615 
Q 945.287125 668.846615 945.287125 670.446615 
L 945.287125 678.189115 
Q 945.287125 679.789115 946.887125 679.789115 
z
" clip-path="url(#pf457fc84c1)" style="fill: #ffffff; opacity: 0.62"/>
    </g>
    <g clip-path="url(#pf457fc84c1)">
     <!-- OTel -->
     <g style="fill: #5f7f95" transform="translate(946.887125 676.525365) scale(0.08 -0.08)">
      <defs>
       <path id="DejaVuSans-4f" d="M 2522 4238 
Q 1834 4238 1429 3725 
Q 1025 3213 1025 2328 
Q 1025 1447 1429 934 
Q 1834 422 2522 422 
Q 3209 422 3611 934 
Q 4013 1447 4013 2328 
Q 4013 3213 3611 3725 
Q 3209 4238 2522 4238 
z
M 2522 4750 
Q 3503 4750 4090 4092 
Q 4678 3434 4678 2328 
Q 4678 1225 4090 567 
Q 3503 -91 2522 -91 
Q 1538 -91 948 565 
Q 359 1222 359 2328 
Q 359 3434 948 4092 
Q 1538 4750 2522 4750 
z
" transform="scale(0.015625)"/>
       <path id="DejaVuSans-54" d="M -19 4666 
L 3928 4666 
L 3928 4134 
L 2272 4134 
L 2272 0 
L 1638 0 
L 1638 4134 
L -19 4134 
L -19 4666 
z
" transform="scale(0.015625)"/>
      </defs>
      <use xlink:href="#DejaVuSans-4f"/>
      <use xlink:href="#DejaVuSans-54" transform="translate(78.710938 0)"/>
      <use xlink:href="#DejaVuSans-65" transform="translate(122.794922 0)"/>
      <use xlink:href="#DejaVuSans-6c" transform="translate(184.318359 0)"/>
     </g>
    </g>
   </g>
   <g id="text_7">
    <g id="patch_24">
     <path d="M 1185.55664 505.734878 
L 1202.52539 505.734878 
Q 1204.12539 505.734878 1204.12539 504.134878 
L 1204.12539 496.392378 
Q 1204.12539 494.792378 1202.52539 494.792378 
L 1185.55664 494.792378 
Q 1183.95664 494.792378 1183.95664 496.392378 
L 1183.95664 504.134878 
Q 1183.95664 505.734878 1185.55664 505.734878 
z
" clip-path="url(#pf457fc84c1)" style="fill: #ffffff; opacity: 0.62"/>
    </g>
    <g clip-path="url(#pf457fc84c1)">
     <!-- OTel -->
     <g style="fill: #5f7f95" transform="translate(1185.55664 502.471128) scale(0.08 -0.08)">
      <use xlink:href="#DejaVuSans-4f"/>
      <use xlink:href="#DejaVuSans-54" transform="translate(78.710938 0)"/>
      <use xlink:href="#DejaVuSans-65" transform="translate(122.794922 0)"/>
      <use xlink:href="#DejaVuSans-6c" transform="translate(184.318359 0)"/>
     </g>
    </g>
   </g>
   <g id="text_8">
    <g id="patch_25">
     <path d="M 1185.557827 605.995605 
L 1202.526577 605.995605 
Q 1204.126577 605.995605 1204.126577 604.395605 
L 1204.126577 596.653105 
Q 1204.126577 595.053105 1202.526577 595.053105 
L 1185.557827 595.053105 
Q 1183.957827 595.053105 1183.957827 596.653105 
L 1183.957827 604.395605 
Q 1183.957827 605.995605 1185.557827 605.995605 
z
" clip-path="url(#pf457fc84c1)" style="fill: #ffffff; opacity: 0.62"/>
    </g>
    <g clip-path="url(#pf457fc84c1)">
     <!-- OTel -->
     <g style="fill: #5f7f95" transform="translate(1185.557827 602.731855) scale(0.08 -0.08)">
      <use xlink:href="#DejaVuSans-4f"/>
      <use xlink:href="#DejaVuSans-54" transform="translate(78.710938 0)"/>
      <use xlink:href="#DejaVuSans-65" transform="translate(122.794922 0)"/>
      <use xlink:href="#DejaVuSans-6c" transform="translate(184.318359 0)"/>
     </g>
    </g>
   </g>
   <g id="text_9">
    <g id="patch_26">
     <path d="M 1185.56024 706.256075 
L 1202.52899 706.256075 
Q 1204.12899 706.256075 1204.12899 704.656075 
L 1204.12899 696.913575 
Q 1204.12899 695.313575 1202.52899 695.313575 
L 1185.56024 695.313575 
Q 1183.96024 695.313575 1183.96024 696.913575 
L 1183.96024 704.656075 
Q 1183.96024 706.256075 1185.56024 706.256075 
z
" clip-path="url(#pf457fc84c1)" style="fill: #ffffff; opacity: 0.62"/>
    </g>
    <g clip-path="url(#pf457fc84c1)">
     <!-- OTel -->
     <g style="fill: #5f7f95" transform="translate(1185.56024 702.992325) scale(0.08 -0.08)">
      <use xlink:href="#DejaVuSans-4f"/>
      <use xlink:href="#DejaVuSans-54" transform="translate(78.710938 0)"/>
      <use xlink:href="#DejaVuSans-65" transform="translate(122.794922 0)"/>
      <use xlink:href="#DejaVuSans-6c" transform="translate(184.318359 0)"/>
     </g>
    </g>
   </g>
   <g id="text_10">
    <g id="patch_27">
     <path d="M 1185.55494 806.513859 
L 1202.52369 806.513859 
Q 1204.12369 806.513859 1204.12369 804.913859 
L 1204.12369 797.171359 
Q 1204.12369 795.571359 1202.52369 795.571359 
L 1185.55494 795.571359 
Q 1183.95494 795.571359 1183.95494 797.171359 
L 1183.95494 804.913859 
Q 1183.95494 806.513859 1185.55494 806.513859 
z
" clip-path="url(#pf457fc84c1)" style="fill: #ffffff; opacity: 0.62"/>
    </g>
    <g clip-path="url(#pf457fc84c1)">
     <!-- OTel -->
     <g style="fill: #5f7f95" transform="translate(1185.55494 803.250109) scale(0.08 -0.08)">
      <use xlink:href="#DejaVuSans-4f"/>
      <use xlink:href="#DejaVuSans-54" transform="translate(78.710938 0)"/>
      <use xlink:href="#DejaVuSans-65" transform="translate(122.794922 0)"/>
      <use xlink:href="#DejaVuSans-6c" transform="translate(184.318359 0)"/>
     </g>
    </g>
   </g>
   <g id="text_11">
    <g id="patch_28">
     <path d="M 427.917864 562.229504 
L 443.735364 562.229504 
Q 445.335364 562.229504 445.335364 560.629504 
L 445.335364 552.887004 
Q 445.335364 551.287004 443.735364 551.287004 
L 427.917864 551.287004 
Q 426.317864 551.287004 426.317864 552.887004 
L 426.317864 560.629504 
Q 426.317864 562.229504 427.917864 562.229504 
z
" clip-path="url(#pf457fc84c1)" style="fill: #ffffff; opacity: 0.82"/>
    </g>
    <g clip-path="url(#pf457fc84c1)">
     <!-- LLM -->
     <g style="fill: #4c1d95" transform="translate(427.917864 558.965754) scale(0.08 -0.08)">
      <defs>
       <path id="DejaVuSans-4c" d="M 628 4666 
L 1259 4666 
L 1259 531 
L 3531 531 
L 3531 0 
L 628 0 
L 628 4666 
z
" transform="scale(0.015625)"/>
       <path id="DejaVuSans-4d" d="M 628 4666 
L 1569 4666 
L 2759 1491 
L 3956 4666 
L 4897 4666 
L 4897 0 
L 4281 0 
L 4281 4097 
L 3078 897 
L 2444 897 
L 1241 4097 
L 1241 0 
L 628 0 
L 628 4666 
z
" transform="scale(0.015625)"/>
      </defs>
      <use xlink:href="#DejaVuSans-4c"/>
      <use xlink:href="#DejaVuSans-4c" transform="translate(55.712891 0)"/>
      <use xlink:href="#DejaVuSans-4d" transform="translate(111.425781 0)"/>
     </g>
    </g>
   </g>
   <g id="text_12">
    <g id="patch_29">
     <path d="M 905.252047 214.1197 
L 921.069547 214.1197 
Q 922.669547 214.1197 922.669547 212.5197 
L 922.669547 204.7772 
Q 922.669547 203.1772 921.069547 203.1772 
L 905.252047 203.1772 
Q 903.652047 203.1772 903.652047 204.7772 
L 903.652047 212.5197 
Q 903.652047 214.1197 905.252047 214.1197 
z
" clip-path="url(#pf457fc84c1)" style="fill: #ffffff; opacity: 0.82"/>
    </g>
    <g clip-path="url(#pf457fc84c1)">
     <!-- LLM -->
     <g style="fill: #4c1d95" transform="translate(905.252047 210.85595) scale(0.08 -0.08)">
      <use xlink:href="#DejaVuSans-4c"/>
      <use xlink:href="#DejaVuSans-4c" transform="translate(55.712891 0)"/>
      <use xlink:href="#DejaVuSans-4d" transform="translate(111.425781 0)"/>
     </g>
    </g>
   </g>
   <g id="text_13">
    <g id="patch_30">
     <path d="M 905.252047 414.63909 
L 921.069547 414.63909 
Q 922.669547 414.63909 922.669547 413.03909 
L 922.669547 405.29659 
Q 922.669547 403.69659 921.069547 403.69659 
L 905.252047 403.69659 
Q 903.652047 403.69659 903.652047 405.29659 
L 903.652047 413.03909 
Q 903.652047 414.63909 905.252047 414.63909 
z
" clip-path="url(#pf457fc84c1)" style="fill: #ffffff; opacity: 0.82"/>
    </g>
    <g clip-path="url(#pf457fc84c1)">
     <!-- LLM -->
     <g style="fill: #4c1d95" transform="translate(905.252047 411.37534) scale(0.08 -0.08)">
      <use xlink:href="#DejaVuSans-4c"/>
      <use xlink:href="#DejaVuSans-4c" transform="translate(55.712891 0)"/>
      <use xlink:href="#DejaVuSans-4d" transform="translate(111.425781 0)"/>
     </g>
    </g>
   </g>
   <g id="text_14">
    <g id="patch_31">
     <path d="M 905.252047 615.15848 
L 921.069547 615.15848 
Q 922.669547 615.15848 922.669547 613.55848 
L 922.669547 605.81598 
Q 922.669547 604.21598 921.069547 604.21598 
L 905.252047 604.21598 
Q 903.652047 604.21598 903.652047 605.81598 
L 903.652047 613.55848 
Q 903.652047 615.15848 905.252047 615.15848 
z
" clip-path="url(#pf457fc84c1)" style="fill: #ffffff; opacity: 0.82"/>
    </g>
    <g clip-path="url(#pf457fc84c1)">
     <!-- LLM -->
     <g style="fill: #4c1d95" transform="translate(905.252047 611.89473) scale(0.08 -0.08)">
      <use xlink:href="#DejaVuSans-4c"/>
      <use xlink:href="#DejaVuSans-4c" transform="translate(55.712891 0)"/>
      <use xlink:href="#DejaVuSans-4d" transform="translate(111.425781 0)"/>
     </g>
    </g>
   </g>
   <g id="text_15">
    <g id="patch_32">
     <path d="M 905.252047 815.67787 
L 921.069547 815.67787 
Q 922.669547 815.67787 922.669547 814.07787 
L 922.669547 806.33537 
Q 922.669547 804.73537 921.069547 804.73537 
L 905.252047 804.73537 
Q 903.652047 804.73537 903.652047 806.33537 
L 903.652047 814.07787 
Q 903.652047 815.67787 905.252047 815.67787 
z
" clip-path="url(#pf457fc84c1)" style="fill: #ffffff; opacity: 0.82"/>
    </g>
    <g clip-path="url(#pf457fc84c1)">
     <!-- LLM -->
     <g style="fill: #4c1d95" transform="translate(905.252047 812.41412) scale(0.08 -0.08)">
      <use xlink:href="#DejaVuSans-4c"/>
      <use xlink:href="#DejaVuSans-4c" transform="translate(55.712891 0)"/>
      <use xlink:href="#DejaVuSans-4d" transform="translate(111.425781 0)"/>
     </g>
    </g>
   </g>
   <g id="text_16">
    <g id="patch_33">
     <path d="M 289.209664 517.949378 
L 309.682164 517.949378 
Q 311.282164 517.949378 311.282164 516.349378 
L 311.282164 508.606878 
Q 311.282164 507.006878 309.682164 507.006878 
L 289.209664 507.006878 
Q 287.609664 507.006878 287.609664 508.606878 
L 287.609664 516.349378 
Q 287.609664 517.949378 289.209664 517.949378 
z
" clip-path="url(#pf457fc84c1)" style="fill: #ffffff; opacity: 0.9"/>
    </g>
    <g clip-path="url(#pf457fc84c1)">
     <!-- HTTP -->
     <g style="fill: #1a365d" transform="translate(289.209664 514.685628) scale(0.08 -0.08)">
      <defs>
       <path id="DejaVuSans-48" d="M 628 4666 
L 1259 4666 
L 1259 2753 
L 3553 2753 
L 3553 4666 
L 4184 4666 
L 4184 0 
L 3553 0 
L 3553 2222 
L 1259 2222 
L 1259 0 
L 628 0 
L 628 4666 
z
" transform="scale(0.015625)"/>
       <path id="DejaVuSans-50" d="M 1259 4147 
L 1259 2394 
L 2053 2394 
Q 2494 2394 2734 2622 
Q 2975 2850 2975 3272 
Q 2975 3691 2734 3919 
Q 2494 4147 2053 4147 
L 1259 4147 
z
M 628 4666 
L 2053 4666 
Q 2838 4666 3239 4311 
Q 3641 3956 3641 3272 
Q 3641 2581 3239 2228 
Q 2838 1875 2053 1875 
L 1259 1875 
L 1259 0 
L 628 0 
L 628 4666 
z
" transform="scale(0.015625)"/>
      </defs>
      <use xlink:href="#DejaVuSans-48"/>
      <use xlink:href="#DejaVuSans-54" transform="translate(75.195312 0)"/>
      <use xlink:href="#DejaVuSans-54" transform="translate(134.529297 0)"/>
      <use xlink:href="#DejaVuSans-50" transform="translate(195.613281 0)"/>
     </g>
    </g>
   </g>
   <g id="text_17">
    <g id="patch_34">
     <path d="M 654.582858 343.893726 
L 694.406608 343.893726 
Q 696.006608 343.893726 696.006608 342.293726 
L 696.006608 334.551226 
Q 696.006608 332.951226 694.406608 332.951226 
L 654.582858 332.951226 
Q 652.982858 332.951226 652.982858 334.551226 
L 652.982858 342.293726 
Q 652.982858 343.893726 654.582858 343.893726 
z
" clip-path="url(#pf457fc84c1)" style="fill: #ffffff; opacity: 0.88"/>
    </g>
    <g clip-path="url(#pf457fc84c1)">
     <!-- MCP: plan -->
     <g style="fill: #2d3748" transform="translate(654.582858 340.629976) scale(0.08 -0.08)">
      <defs>
       <path id="DejaVuSans-43" d="M 4122 4306 
L 4122 3641 
Q 3803 3938 3442 4084 
Q 3081 4231 2675 4231 
Q 1875 4231 1450 3742 
Q 1025 3253 1025 2328 
Q 1025 1406 1450 917 
Q 1875 428 2675 428 
Q 3081 428 3442 575 
Q 3803 722 4122 1019 
L 4122 359 
Q 3791 134 3420 21 
Q 3050 -91 2638 -91 
Q 1578 -91 968 557 
Q 359 1206 359 2328 
Q 359 3453 968 4101 
Q 1578 4750 2638 4750 
Q 3056 4750 3426 4639 
Q 3797 4528 4122 4306 
z
" transform="scale(0.015625)"/>
       <path id="DejaVuSans-3a" d="M 750 794 
L 1409 794 
L 1409 0 
L 750 0 
L 750 794 
z
M 750 3309 
L 1409 3309 
L 1409 2516 
L 750 2516 
L 750 3309 
z
" transform="scale(0.015625)"/>
      </defs>
      <use xlink:href="#DejaVuSans-4d"/>
      <use xlink:href="#DejaVuSans-43" transform="translate(86.279297 0)"/>
      <use xlink:href="#DejaVuSans-50" transform="translate(156.103516 0)"/>
      <use xlink:href="#DejaVuSans-3a" transform="translate(216.40625 0)"/>
      <use xlink:href="#DejaVuSans-20" transform="translate(250.097656 0)"/>
      <use xlink:href="#DejaVuSans-70" transform="translate(281.884766 0)"/>
      <use xlink:href="#DejaVuSans-6c" transform="translate(345.361328 0)"/>
      <use xlink:href="#DejaVuSans-61" transform="translate(373.144531 0)"/>
      <use xlink:href="#DejaVuSans-6e" transform="translate(434.423828 0)"/>
     </g>
    </g>
   </g>
   <g id="text_18">
    <g id="patch_35">
     <path d="M 653.898155 444.154148 
L 695.089405 444.154148 
Q 696.689405 444.154148 696.689405 442.554148 
L 696.689405 434.811648 
Q 696.689405 433.211648 695.089405 433.211648 
L 653.898155 433.211648 
Q 652.298155 433.211648 652.298155 434.811648 
L 652.298155 442.554148 
Q 652.298155 444.154148 653.898155 444.154148 
z
" clip-path="url(#pf457fc84c1)" style="fill: #ffffff; opacity: 0.88"/>
    </g>
    <g clip-path="url(#pf457fc84c1)">
     <!-- MCP: local -->
     <g style="fill: #2d3748" transform="translate(653.898155 440.890398) scale(0.08 -0.08)">
      <use xlink:href="#DejaVuSans-4d"/>
      <use xlink:href="#DejaVuSans-43" transform="translate(86.279297 0)"/>
      <use xlink:href="#DejaVuSans-50" transform="translate(156.103516 0)"/>
      <use xlink:href="#DejaVuSans-3a" transform="translate(216.40625 0)"/>
      <use xlink:href="#DejaVuSans-20" transform="translate(250.097656 0)"/>
      <use xlink:href="#DejaVuSans-6c" transform="translate(281.884766 0)"/>
      <use xlink:href="#DejaVuSans-6f" transform="translate(309.667969 0)"/>
      <use xlink:href="#DejaVuSans-63" transform="translate(370.849609 0)"/>
      <use xlink:href="#DejaVuSans-61" transform="translate(425.830078 0)"/>
      <use xlink:href="#DejaVuSans-6c" transform="translate(487.109375 0)"/>
     </g>
    </g>
   </g>
   <g id="text_19">
    <g id="patch_36">
     <path d="M 644.593852 544.413744 
L 704.391352 544.413744 
Q 705.991352 544.413744 705.991352 542.813744 
L 705.991352 535.071244 
Q 705.991352 533.471244 704.391352 533.471244 
L 644.593852 533.471244 
Q 642.993852 533.471244 642.993852 535.071244 
L 642.993852 542.813744 
Q 642.993852 544.413744 644.593852 544.413744 
z
" clip-path="url(#pf457fc84c1)" style="fill: #ffffff; opacity: 0.88"/>
    </g>
    <g clip-path="url(#pf457fc84c1)">
     <!-- MCP: language -->
     <g style="fill: #2d3748" transform="translate(644.593852 541.149994) scale(0.08 -0.08)">
      <use xlink:href="#DejaVuSans-4d"/>
      <use xlink:href="#DejaVuSans-43" transform="translate(86.279297 0)"/>
      <use xlink:href="#DejaVuSans-50" transform="translate(156.103516 0)"/>
      <use xlink:href="#DejaVuSans-3a" transform="translate(216.40625 0)"/>
      <use xlink:href="#DejaVuSans-20" transform="translate(250.097656 0)"/>
      <use xlink:href="#DejaVuSans-6c" transform="translate(281.884766 0)"/>
      <use xlink:href="#DejaVuSans-61" transform="translate(309.667969 0)"/>
      <use xlink:href="#DejaVuSans-6e" transform="translate(370.947266 0)"/>
      <use xlink:href="#DejaVuSans-67" transform="translate(434.326172 0)"/>
      <use xlink:href="#DejaVuSans-75" transform="translate(497.802734 0)"/>
      <use xlink:href="#DejaVuSans-61" transform="translate(561.181641 0)"/>
      <use xlink:href="#DejaVuSans-67" transform="translate(622.460938 0)"/>
      <use xlink:href="#DejaVuSans-65" transform="translate(685.9375 0)"/>
     </g>
    </g>
   </g>
   <g id="text_20">
    <g id="patch_37">
     <path d="M 644.344736 644.673776 
L 704.643486 644.673776 
Q 706.243486 644.673776 706.243486 643.073776 
L 706.243486 635.331276 
Q 706.243486 633.731276 704.643486 633.731276 
L 644.344736 633.731276 
Q 642.744736 633.731276 642.744736 635.331276 
L 642.744736 643.073776 
Q 642.744736 644.673776 644.344736 644.673776 
z
" clip-path="url(#pf457fc84c1)" style="fill: #ffffff; opacity: 0.88"/>
    </g>
    <g clip-path="url(#pf457fc84c1)">
     <!-- MCP: summary -->
     <g style="fill: #2d3748" transform="translate(644.344736 641.410026) scale(0.08 -0.08)">
      <use xlink:href="#DejaVuSans-4d"/>
      <use xlink:href="#DejaVuSans-43" transform="translate(86.279297 0)"/>
      <use xlink:href="#DejaVuSans-50" transform="translate(156.103516 0)"/>
      <use xlink:href="#DejaVuSans-3a" transform="translate(216.40625 0)"/>
      <use xlink:href="#DejaVuSans-20" transform="translate(250.097656 0)"/>
      <use xlink:href="#DejaVuSans-73" transform="translate(281.884766 0)"/>
      <use xlink:href="#DejaVuSans-75" transform="translate(333.984375 0)"/>
      <use xlink:href="#DejaVuSans-6d" transform="translate(397.363281 0)"/>
      <use xlink:href="#DejaVuSans-6d" transform="translate(494.775391 0)"/>
      <use xlink:href="#DejaVuSans-61" transform="translate(592.1875 0)"/>
      <use xlink:href="#DejaVuSans-72" transform="translate(653.466797 0)"/>
      <use xlink:href="#DejaVuSans-79" transform="translate(694.580078 0)"/>
     </g>
    </g>
   </g>
   <g id="PathCollection_1">
    <defs>
     <path id="m609677faa2" d="M -19.364917 19.364917 
L 19.364917 19.364917 
L 19.364917 -19.364917 
L -19.364917 -19.364917 
z
" style="stroke: #ffffff; stroke-width: 1.8"/>
    </defs>
    <g clip-path="url(#pf457fc84c1)">
     <use xlink:href="#m609677faa2" x="163.064223" y="512.478128" style="fill: #1a365d; stroke: #ffffff; stroke-width: 1.8"/>
    </g>
   </g>
   <g id="PathCollection_2">
    <defs>
     <path id="m485dd64d24" d="M 0 21.505813 
C 5.703408 21.505813 11.173988 19.239825 15.206906 15.206906 
C 19.239825 11.173988 21.505813 5.703408 21.505813 0 
C 21.505813 -5.703408 19.239825 -11.173988 15.206906 -15.206906 
C 11.173988 -19.239825 5.703408 -21.505813 0 -21.505813 
C -5.703408 -21.505813 -11.173988 -19.239825 -15.206906 -15.206906 
C -19.239825 -11.173988 -21.505813 -5.703408 -21.505813 0 
C -21.505813 5.703408 -19.239825 11.173988 -15.206906 15.206906 
C -11.173988 19.239825 -5.703408 21.505813 0 21.505813 
z
" style="stroke: #ffffff; stroke-width: 1.8"/>
    </defs>
    <g clip-path="url(#pf457fc84c1)">
     <use xlink:href="#m485dd64d24" x="435.826614" y="512.478128" style="fill: #2f855a; stroke: #ffffff; stroke-width: 1.8"/>
     <use xlink:href="#m485dd64d24" x="913.160797" y="164.368324" style="fill: #2f855a; stroke: #ffffff; stroke-width: 1.8"/>
     <use xlink:href="#m485dd64d24" x="913.160797" y="364.887714" style="fill: #2f855a; stroke: #ffffff; stroke-width: 1.8"/>
     <use xlink:href="#m485dd64d24" x="913.160797" y="565.407104" style="fill: #2f855a; stroke: #ffffff; stroke-width: 1.8"/>
     <use xlink:href="#m485dd64d24" x="913.160797" y="765.926494" style="fill: #2f855a; stroke: #ffffff; stroke-width: 1.8"/>
    </g>
   </g>
   <g id="PathCollection_3">
    <defs>
     <path id="md97d46ab9b" d="M 0 15.411035 
C 4.087054 15.411035 8.007264 13.787231 10.897247 10.897247 
C 13.787231 8.007264 15.411035 4.087054 15.411035 0 
C 15.411035 -4.087054 13.787231 -8.007264 10.897247 -10.897247 
C 8.007264 -13.787231 4.087054 -15.411035 0 -15.411035 
C -4.087054 -15.411035 -8.007264 -13.787231 -10.897247 -10.897247 
C -13.787231 -8.007264 -15.411035 -4.087054 -15.411035 0 
C -15.411035 4.087054 -13.787231 8.007264 -10.897247 10.897247 
C -8.007264 13.787231 -4.087054 15.411035 0 15.411035 
z
" style="stroke: #ffffff; stroke-width: 1.8"/>
    </defs>
    <g clip-path="url(#pf457fc84c1)">
     <use xlink:href="#md97d46ab9b" x="435.826614" y="601.032376" style="fill: #553c9a; stroke: #ffffff; stroke-width: 1.8"/>
     <use xlink:href="#md97d46ab9b" x="913.160797" y="252.922573" style="fill: #553c9a; stroke: #ffffff; stroke-width: 1.8"/>
     <use xlink:href="#md97d46ab9b" x="913.160797" y="453.441962" style="fill: #553c9a; stroke: #ffffff; stroke-width: 1.8"/>
     <use xlink:href="#md97d46ab9b" x="913.160797" y="653.961352" style="fill: #553c9a; stroke: #ffffff; stroke-width: 1.8"/>
     <use xlink:href="#md97d46ab9b" x="913.160797" y="854.480742" style="fill: #553c9a; stroke: #ffffff; stroke-width: 1.8"/>
    </g>
   </g>
   <g id="PathCollection_4">
    <defs>
     <path id="m206c4ff6bc" d="M 0 -17.320508 
L -15 -8.660254 
L -15 8.660254 
L -0 17.320508 
L 15 8.660254 
L 15 -8.660254 
z
" style="stroke: #ffffff; stroke-opacity: 0.38; stroke-width: 1.8"/>
    </defs>
    <g clip-path="url(#pf457fc84c1)">
     <use xlink:href="#m206c4ff6bc" x="1474.921434" y="836.159174" style="fill: #6b8aa3; fill-opacity: 0.38; stroke: #ffffff; stroke-opacity: 0.38; stroke-width: 1.8"/>
    </g>
   </g>
   <g id="text_21">
    <g id="patch_38">
     <path d="M 130.136879 483.931585 
L 195.991567 483.931585 
Q 198.511567 483.931585 198.511567 481.411585 
L 198.511567 472.701272 
Q 198.511567 470.181272 195.991567 470.181272 
L 130.136879 470.181272 
Q 127.616879 470.181272 127.616879 472.701272 
L 127.616879 481.411585 
Q 127.616879 483.931585 130.136879 483.931585 
z
" clip-path="url(#pf457fc84c1)" style="fill: #ffffff; opacity: 0.95; stroke: #cbd5e0; stroke-linejoin: miter"/>
    </g>
    <g clip-path="url(#pf457fc84c1)">
     <!-- Travel Plan API -->
     <g style="fill: #172033" transform="translate(130.136879 479.539866) scale(0.09 -0.09)">
      <defs>
       <path id="DejaVuSans-76" d="M 191 3500 
L 800 3500 
L 1894 563 
L 2988 3500 
L 3597 3500 
L 2284 0 
L 1503 0 
L 191 3500 
z
" transform="scale(0.015625)"/>
       <path id="DejaVuSans-41" d="M 2188 4044 
L 1331 1722 
L 3047 1722 
L 2188 4044 
z
M 1831 4666 
L 2547 4666 
L 4325 0 
L 3669 0 
L 3244 1197 
L 1141 1197 
L 716 0 
L 50 0 
L 1831 4666 
z
" transform="scale(0.015625)"/>
       <path id="DejaVuSans-49" d="M 628 4666 
L 1259 4666 
L 1259 0 
L 628 0 
L 628 4666 
z
" transform="scale(0.015625)"/>
      </defs>
      <use xlink:href="#DejaVuSans-54"/>
      <use xlink:href="#DejaVuSans-72" transform="translate(46.333984 0)"/>
      <use xlink:href="#DejaVuSans-61" transform="translate(87.447266 0)"/>
      <use xlink:href="#DejaVuSans-76" transform="translate(148.726562 0)"/>
      <use xlink:href="#DejaVuSans-65" transform="translate(207.90625 0)"/>
      <use xlink:href="#DejaVuSans-6c" transform="translate(269.429688 0)"/>
      <use xlink:href="#DejaVuSans-20" transform="translate(297.212891 0)"/>
      <use xlink:href="#DejaVuSans-50" transform="translate(329 0)"/>
      <use xlink:href="#DejaVuSans-6c" transform="translate(389.302734 0)"/>
      <use xlink:href="#DejaVuSans-61" transform="translate(417.085938 0)"/>
      <use xlink:href="#DejaVuSans-6e" transform="translate(478.365234 0)"/>
      <use xlink:href="#DejaVuSans-20" transform="translate(541.744141 0)"/>
      <use xlink:href="#DejaVuSans-41" transform="translate(573.53125 0)"/>
      <use xlink:href="#DejaVuSans-50" transform="translate(641.939453 0)"/>
      <use xlink:href="#DejaVuSans-49" transform="translate(702.242188 0)"/>
     </g>
    </g>
   </g>
   <g id="text_22">
    <g id="patch_39">
     <path d="M 1460.591747 874.791716 
L 1489.251122 874.791716 
Q 1491.771122 874.791716 1491.771122 872.271716 
L 1491.771122 863.561403 
Q 1491.771122 861.041403 1489.251122 861.041403 
L 1460.591747 861.041403 
Q 1458.071747 861.041403 1458.071747 863.561403 
L 1458.071747 872.271716 
Q 1458.071747 874.791716 1460.591747 874.791716 
z
" clip-path="url(#pf457fc84c1)" style="fill: #ffffff; opacity: 0.95; stroke: #cbd5e0; stroke-linejoin: miter"/>
    </g>
    <g clip-path="url(#pf457fc84c1)">
     <!-- Jaeger -->
     <g style="fill: #172033" transform="translate(1460.591747 870.399997) scale(0.09 -0.09)">
      <defs>
       <path id="DejaVuSans-4a" d="M 628 4666 
L 1259 4666 
L 1259 325 
Q 1259 -519 939 -900 
Q 619 -1281 -91 -1281 
L -331 -1281 
L -331 -750 
L -134 -750 
Q 284 -750 456 -515 
Q 628 -281 628 325 
L 628 4666 
z
" transform="scale(0.015625)"/>
      </defs>
      <use xlink:href="#DejaVuSans-4a"/>
      <use xlink:href="#DejaVuSans-61" transform="translate(29.492188 0)"/>
      <use xlink:href="#DejaVuSans-65" transform="translate(90.771484 0)"/>
      <use xlink:href="#DejaVuSans-67" transform="translate(152.294922 0)"/>
      <use xlink:href="#DejaVuSans-65" transform="translate(215.771484 0)"/>
      <use xlink:href="#DejaVuSans-72" transform="translate(277.294922 0)"/>
     </g>
    </g>
   </g>
   <g id="text_23">
    <g id="patch_40">
     <path d="M 395.947473 483.931585 
L 475.705754 483.931585 
Q 478.225754 483.931585 478.225754 481.411585 
L 478.225754 472.701272 
Q 478.225754 470.181272 475.705754 470.181272 
L 395.947473 470.181272 
Q 393.427473 470.181272 393.427473 472.701272 
L 393.427473 481.411585 
Q 393.427473 483.931585 395.947473 483.931585 
z
" clip-path="url(#pf457fc84c1)" style="fill: #ffffff; opacity: 0.95; stroke: #cbd5e0; stroke-linejoin: miter"/>
    </g>
    <g clip-path="url(#pf457fc84c1)">
     <!-- TravelCoordinator -->
     <g style="fill: #172033" transform="translate(395.947473 479.539866) scale(0.09 -0.09)">
      <use xlink:href="#DejaVuSans-54"/>
      <use xlink:href="#DejaVuSans-72" transform="translate(46.333984 0)"/>
      <use xlink:href="#DejaVuSans-61" transform="translate(87.447266 0)"/>
      <use xlink:href="#DejaVuSans-76" transform="translate(148.726562 0)"/>
      <use xlink:href="#DejaVuSans-65" transform="translate(207.90625 0)"/>
      <use xlink:href="#DejaVuSans-6c" transform="translate(269.429688 0)"/>
      <use xlink:href="#DejaVuSans-43" transform="translate(297.212891 0)"/>
      <use xlink:href="#DejaVuSans-6f" transform="translate(367.037109 0)"/>
      <use xlink:href="#DejaVuSans-6f" transform="translate(428.21875 0)"/>
      <use xlink:href="#DejaVuSans-72" transform="translate(489.400391 0)"/>
      <use xlink:href="#DejaVuSans-64" transform="translate(528.763672 0)"/>
      <use xlink:href="#DejaVuSans-69" transform="translate(592.240234 0)"/>
      <use xlink:href="#DejaVuSans-6e" transform="translate(620.023438 0)"/>
      <use xlink:href="#DejaVuSans-61" transform="translate(683.402344 0)"/>
      <use xlink:href="#DejaVuSans-74" transform="translate(744.681641 0)"/>
      <use xlink:href="#DejaVuSans-6f" transform="translate(783.890625 0)"/>
      <use xlink:href="#DejaVuSans-72" transform="translate(845.072266 0)"/>
     </g>
    </g>
   </g>
   <g id="text_24">
    <g id="patch_41">
     <path d="M 400.856692 636.125761 
L 470.796535 636.125761 
Q 473.316535 636.125761 473.316535 633.605761 
L 473.316535 624.645136 
Q 473.316535 622.125136 470.796535 622.125136 
L 400.856692 622.125136 
Q 398.336692 622.125136 398.336692 624.645136 
L 398.336692 633.605761 
Q 398.336692 636.125761 400.856692 636.125761 
z
" clip-path="url(#pf457fc84c1)" style="fill: #ffffff; opacity: 0.95; stroke: #cbd5e0; stroke-linejoin: miter"/>
    </g>
    <g clip-path="url(#pf457fc84c1)">
     <!-- coordinator_llm -->
     <g style="fill: #172033" transform="translate(400.856692 631.48373) scale(0.09 -0.09)">
      <defs>
       <path id="DejaVuSans-5f" d="M 3263 -1063 
L 3263 -1509 
L -63 -1509 
L -63 -1063 
L 3263 -1063 
z
" transform="scale(0.015625)"/>
      </defs>
      <use xlink:href="#DejaVuSans-63"/>
      <use xlink:href="#DejaVuSans-6f" transform="translate(54.980469 0)"/>
      <use xlink:href="#DejaVuSans-6f" transform="translate(116.162109 0)"/>
      <use xlink:href="#DejaVuSans-72" transform="translate(177.34375 0)"/>
      <use xlink:href="#DejaVuSans-64" transform="translate(216.707031 0)"/>
      <use xlink:href="#DejaVuSans-69" transform="translate(280.183594 0)"/>
      <use xlink:href="#DejaVuSans-6e" transform="translate(307.966797 0)"/>
      <use xlink:href="#DejaVuSans-61" transform="translate(371.345703 0)"/>
      <use xlink:href="#DejaVuSans-74" transform="translate(432.625 0)"/>
      <use xlink:href="#DejaVuSans-6f" transform="translate(471.833984 0)"/>
      <use xlink:href="#DejaVuSans-72" transform="translate(533.015625 0)"/>
      <use xlink:href="#DejaVuSans-5f" transform="translate(574.128906 0)"/>
      <use xlink:href="#DejaVuSans-6c" transform="translate(624.128906 0)"/>
      <use xlink:href="#DejaVuSans-6c" transform="translate(651.912109 0)"/>
      <use xlink:href="#DejaVuSans-6d" transform="translate(679.695312 0)"/>
     </g>
    </g>
   </g>
   <g id="text_25">
    <g id="patch_42">
     <path d="M 869.422203 135.821781 
L 956.899391 135.821781 
Q 959.419391 135.821781 959.419391 133.301781 
L 959.419391 124.591469 
Q 959.419391 122.071469 956.899391 122.071469 
L 869.422203 122.071469 
Q 866.902203 122.071469 866.902203 124.591469 
L 866.902203 133.301781 
Q 866.902203 135.821781 869.422203 135.821781 
z
" clip-path="url(#pf457fc84c1)" style="fill: #ffffff; opacity: 0.95; stroke: #cbd5e0; stroke-linejoin: miter"/>
    </g>
    <g clip-path="url(#pf457fc84c1)">
     <!-- TravelPlannerAgent -->
     <g style="fill: #172033" transform="translate(869.422203 131.430062) scale(0.09 -0.09)">
      <use xlink:href="#DejaVuSans-54"/>
      <use xlink:href="#DejaVuSans-72" transform="translate(46.333984 0)"/>
      <use xlink:href="#DejaVuSans-61" transform="translate(87.447266 0)"/>
      <use xlink:href="#DejaVuSans-76" transform="translate(148.726562 0)"/>
      <use xlink:href="#DejaVuSans-65" transform="translate(207.90625 0)"/>
      <use xlink:href="#DejaVuSans-6c" transform="translate(269.429688 0)"/>
      <use xlink:href="#DejaVuSans-50" transform="translate(297.212891 0)"/>
      <use xlink:href="#DejaVuSans-6c" transform="translate(357.515625 0)"/>
      <use xlink:href="#DejaVuSans-61" transform="translate(385.298828 0)"/>
      <use xlink:href="#DejaVuSans-6e" transform="translate(446.578125 0)"/>
      <use xlink:href="#DejaVuSans-6e" transform="translate(509.957031 0)"/>
      <use xlink:href="#DejaVuSans-65" transform="translate(573.335938 0)"/>
      <use xlink:href="#DejaVuSans-72" transform="translate(634.859375 0)"/>
      <use xlink:href="#DejaVuSans-41" transform="translate(675.972656 0)"/>
      <use xlink:href="#DejaVuSans-67" transform="translate(744.380859 0)"/>
      <use xlink:href="#DejaVuSans-65" transform="translate(807.857422 0)"/>
      <use xlink:href="#DejaVuSans-6e" transform="translate(869.380859 0)"/>
      <use xlink:href="#DejaVuSans-74" transform="translate(932.759766 0)"/>
     </g>
    </g>
   </g>
   <g id="text_26">
    <g id="patch_43">
     <path d="M 886.840016 288.015957 
L 939.481578 288.015957 
Q 942.001578 288.015957 942.001578 285.495957 
L 942.001578 276.535332 
Q 942.001578 274.015332 939.481578 274.015332 
L 886.840016 274.015332 
Q 884.320016 274.015332 884.320016 276.535332 
L 884.320016 285.495957 
Q 884.320016 288.015957 886.840016 288.015957 
z
" clip-path="url(#pf457fc84c1)" style="fill: #ffffff; opacity: 0.95; stroke: #cbd5e0; stroke-linejoin: miter"/>
    </g>
    <g clip-path="url(#pf457fc84c1)">
     <!-- planner_llm -->
     <g style="fill: #172033" transform="translate(886.840016 283.373926) scale(0.09 -0.09)">
      <use xlink:href="#DejaVuSans-70"/>
      <use xlink:href="#DejaVuSans-6c" transform="translate(63.476562 0)"/>
      <use xlink:href="#DejaVuSans-61" transform="translate(91.259766 0)"/>
      <use xlink:href="#DejaVuSans-6e" transform="translate(152.539062 0)"/>
      <use xlink:href="#DejaVuSans-6e" transform="translate(215.917969 0)"/>
      <use xlink:href="#DejaVuSans-65" transform="translate(279.296875 0)"/>
      <use xlink:href="#DejaVuSans-72" transform="translate(340.820312 0)"/>
      <use xlink:href="#DejaVuSans-5f" transform="translate(381.933594 0)"/>
      <use xlink:href="#DejaVuSans-6c" transform="translate(431.933594 0)"/>
      <use xlink:href="#DejaVuSans-6c" transform="translate(459.716797 0)"/>
      <use xlink:href="#DejaVuSans-6d" transform="translate(487.5 0)"/>
     </g>
    </g>
   </g>
   <g id="text_27">
    <g id="patch_44">
     <path d="M 888.176656 336.341171 
L 938.144937 336.341171 
Q 940.664937 336.341171 940.664937 333.821171 
L 940.664937 325.110859 
Q 940.664937 322.590859 938.144937 322.590859 
L 888.176656 322.590859 
Q 885.656656 322.590859 885.656656 325.110859 
L 885.656656 333.821171 
Q 885.656656 336.341171 888.176656 336.341171 
z
" clip-path="url(#pf457fc84c1)" style="fill: #ffffff; opacity: 0.95; stroke: #cbd5e0; stroke-linejoin: miter"/>
    </g>
    <g clip-path="url(#pf457fc84c1)">
     <!-- LocalAgent -->
     <g style="fill: #172033" transform="translate(888.176656 331.949452) scale(0.09 -0.09)">
      <use xlink:href="#DejaVuSans-4c"/>
      <use xlink:href="#DejaVuSans-6f" transform="translate(53.962891 0)"/>
      <use xlink:href="#DejaVuSans-63" transform="translate(115.144531 0)"/>
      <use xlink:href="#DejaVuSans-61" transform="translate(170.125 0)"/>
      <use xlink:href="#DejaVuSans-6c" transform="translate(231.404297 0)"/>
      <use xlink:href="#DejaVuSans-41" transform="translate(259.1875 0)"/>
      <use xlink:href="#DejaVuSans-67" transform="translate(327.595703 0)"/>
      <use xlink:href="#DejaVuSans-65" transform="translate(391.072266 0)"/>
      <use xlink:href="#DejaVuSans-6e" transform="translate(452.595703 0)"/>
      <use xlink:href="#DejaVuSans-74" transform="translate(515.974609 0)"/>
     </g>
    </g>
   </g>
   <g id="text_28">
    <g id="patch_45">
     <path d="M 893.5415 488.535347 
L 932.780094 488.535347 
Q 935.300094 488.535347 935.300094 486.015347 
L 935.300094 477.054722 
Q 935.300094 474.534722 932.780094 474.534722 
L 893.5415 474.534722 
Q 891.0215 474.534722 891.0215 477.054722 
L 891.0215 486.015347 
Q 891.0215 488.535347 893.5415 488.535347 
z
" clip-path="url(#pf457fc84c1)" style="fill: #ffffff; opacity: 0.95; stroke: #cbd5e0; stroke-linejoin: miter"/>
    </g>
    <g clip-path="url(#pf457fc84c1)">
     <!-- local_llm -->
     <g style="fill: #172033" transform="translate(893.5415 483.893316) scale(0.09 -0.09)">
      <use xlink:href="#DejaVuSans-6c"/>
      <use xlink:href="#DejaVuSans-6f" transform="translate(27.783203 0)"/>
      <use xlink:href="#DejaVuSans-63" transform="translate(88.964844 0)"/>
      <use xlink:href="#DejaVuSans-61" transform="translate(143.945312 0)"/>
      <use xlink:href="#DejaVuSans-6c" transform="translate(205.224609 0)"/>
      <use xlink:href="#DejaVuSans-5f" transform="translate(233.007812 0)"/>
      <use xlink:href="#DejaVuSans-6c" transform="translate(283.007812 0)"/>
      <use xlink:href="#DejaVuSans-6c" transform="translate(310.791016 0)"/>
      <use xlink:href="#DejaVuSans-6d" transform="translate(338.574219 0)"/>
     </g>
    </g>
   </g>
   <g id="text_29">
    <g id="patch_46">
     <path d="M 877.631891 536.860561 
L 948.689703 536.860561 
Q 951.209703 536.860561 951.209703 534.340561 
L 951.209703 525.630249 
Q 951.209703 523.110249 948.689703 523.110249 
L 877.631891 523.110249 
Q 875.111891 523.110249 875.111891 525.630249 
L 875.111891 534.340561 
Q 875.111891 536.860561 877.631891 536.860561 
z
" clip-path="url(#pf457fc84c1)" style="fill: #ffffff; opacity: 0.95; stroke: #cbd5e0; stroke-linejoin: miter"/>
    </g>
    <g clip-path="url(#pf457fc84c1)">
     <!-- LanguageAgent -->
     <g style="fill: #172033" transform="translate(877.631891 532.468842) scale(0.09 -0.09)">
      <use xlink:href="#DejaVuSans-4c"/>
      <use xlink:href="#DejaVuSans-61" transform="translate(55.712891 0)"/>
      <use xlink:href="#DejaVuSans-6e" transform="translate(116.992188 0)"/>
      <use xlink:href="#DejaVuSans-67" transform="translate(180.371094 0)"/>
      <use xlink:href="#DejaVuSans-75" transform="translate(243.847656 0)"/>
      <use xlink:href="#DejaVuSans-61" transform="translate(307.226562 0)"/>
      <use xlink:href="#DejaVuSans-67" transform="translate(368.505859 0)"/>
      <use xlink:href="#DejaVuSans-65" transform="translate(431.982422 0)"/>
      <use xlink:href="#DejaVuSans-41" transform="translate(493.505859 0)"/>
      <use xlink:href="#DejaVuSans-67" transform="translate(561.914062 0)"/>
      <use xlink:href="#DejaVuSans-65" transform="translate(625.390625 0)"/>
      <use xlink:href="#DejaVuSans-6e" transform="translate(686.914062 0)"/>
      <use xlink:href="#DejaVuSans-74" transform="translate(750.292969 0)"/>
     </g>
    </g>
   </g>
   <g id="text_30">
    <g id="patch_47">
     <path d="M 883.075484 689.054737 
L 943.246109 689.054737 
Q 945.766109 689.054737 945.766109 686.534737 
L 945.766109 677.574112 
Q 945.766109 675.054112 943.246109 675.054112 
L 883.075484 675.054112 
Q 880.555484 675.054112 880.555484 677.574112 
L 880.555484 686.534737 
Q 880.555484 689.054737 883.075484 689.054737 
z
" clip-path="url(#pf457fc84c1)" style="fill: #ffffff; opacity: 0.95; stroke: #cbd5e0; stroke-linejoin: miter"/>
    </g>
    <g clip-path="url(#pf457fc84c1)">
     <!-- language_llm -->
     <g style="fill: #172033" transform="translate(883.075484 684.412706) scale(0.09 -0.09)">
      <use xlink:href="#DejaVuSans-6c"/>
      <use xlink:href="#DejaVuSans-61" transform="translate(27.783203 0)"/>
      <use xlink:href="#DejaVuSans-6e" transform="translate(89.0625 0)"/>
      <use xlink:href="#DejaVuSans-67" transform="translate(152.441406 0)"/>
      <use xlink:href="#DejaVuSans-75" transform="translate(215.917969 0)"/>
      <use xlink:href="#DejaVuSans-61" transform="translate(279.296875 0)"/>
      <use xlink:href="#DejaVuSans-67" transform="translate(340.576172 0)"/>
      <use xlink:href="#DejaVuSans-65" transform="translate(404.052734 0)"/>
      <use xlink:href="#DejaVuSans-5f" transform="translate(465.576172 0)"/>
      <use xlink:href="#DejaVuSans-6c" transform="translate(515.576172 0)"/>
      <use xlink:href="#DejaVuSans-6c" transform="translate(543.359375 0)"/>
      <use xlink:href="#DejaVuSans-6d" transform="translate(571.142578 0)"/>
     </g>
    </g>
   </g>
   <g id="text_31">
    <g id="patch_48">
     <path d="M 864.719703 737.379951 
L 961.601891 737.379951 
Q 964.121891 737.379951 964.121891 734.859951 
L 964.121891 726.149638 
Q 964.121891 723.629638 961.601891 723.629638 
L 864.719703 723.629638 
Q 862.199703 723.629638 862.199703 726.149638 
L 862.199703 734.859951 
Q 862.199703 737.379951 864.719703 737.379951 
z
" clip-path="url(#pf457fc84c1)" style="fill: #ffffff; opacity: 0.95; stroke: #cbd5e0; stroke-linejoin: miter"/>
    </g>
    <g clip-path="url(#pf457fc84c1)">
     <!-- TravelSummaryAgent -->
     <g style="fill: #172033" transform="translate(864.719703 732.988232) scale(0.09 -0.09)">
      <defs>
       <path id="DejaVuSans-53" d="M 3425 4513 
L 3425 3897 
Q 3066 4069 2747 4153 
Q 2428 4238 2131 4238 
Q 1616 4238 1336 4038 
Q 1056 3838 1056 3469 
Q 1056 3159 1242 3001 
Q 1428 2844 1947 2747 
L 2328 2669 
Q 3034 2534 3370 2195 
Q 3706 1856 3706 1288 
Q 3706 609 3251 259 
Q 2797 -91 1919 -91 
Q 1588 -91 1214 -16 
Q 841 59 441 206 
L 441 856 
Q 825 641 1194 531 
Q 1563 422 1919 422 
Q 2459 422 2753 634 
Q 3047 847 3047 1241 
Q 3047 1584 2836 1778 
Q 2625 1972 2144 2069 
L 1759 2144 
Q 1053 2284 737 2584 
Q 422 2884 422 3419 
Q 422 4038 858 4394 
Q 1294 4750 2059 4750 
Q 2388 4750 2728 4690 
Q 3069 4631 3425 4513 
z
" transform="scale(0.015625)"/>
      </defs>
      <use xlink:href="#DejaVuSans-54"/>
      <use xlink:href="#DejaVuSans-72" transform="translate(46.333984 0)"/>
      <use xlink:href="#DejaVuSans-61" transform="translate(87.447266 0)"/>
      <use xlink:href="#DejaVuSans-76" transform="translate(148.726562 0)"/>
      <use xlink:href="#DejaVuSans-65" transform="translate(207.90625 0)"/>
      <use xlink:href="#DejaVuSans-6c" transform="translate(269.429688 0)"/>
      <use xlink:href="#DejaVuSans-53" transform="translate(297.212891 0)"/>
      <use xlink:href="#DejaVuSans-75" transform="translate(360.689453 0)"/>
      <use xlink:href="#DejaVuSans-6d" transform="translate(424.068359 0)"/>
      <use xlink:href="#DejaVuSans-6d" transform="translate(521.480469 0)"/>
      <use xlink:href="#DejaVuSans-61" transform="translate(618.892578 0)"/>
      <use xlink:href="#DejaVuSans-72" transform="translate(680.171875 0)"/>
      <use xlink:href="#DejaVuSans-79" transform="translate(721.285156 0)"/>
      <use xlink:href="#DejaVuSans-41" transform="translate(780.464844 0)"/>
      <use xlink:href="#DejaVuSans-67" transform="translate(848.873047 0)"/>
      <use xlink:href="#DejaVuSans-65" transform="translate(912.349609 0)"/>
      <use xlink:href="#DejaVuSans-6e" transform="translate(973.873047 0)"/>
      <use xlink:href="#DejaVuSans-74" transform="translate(1037.251953 0)"/>
     </g>
    </g>
   </g>
   <g id="text_32">
    <g id="patch_49">
     <path d="M 882.793531 889.574127 
L 943.528062 889.574127 
Q 946.048062 889.574127 946.048062 887.054127 
L 946.048062 878.093502 
Q 946.048062 875.573502 943.528062 875.573502 
L 882.793531 875.573502 
Q 880.273531 875.573502 880.273531 878.093502 
L 880.273531 887.054127 
Q 880.273531 889.574127 882.793531 889.574127 
z
" clip-path="url(#pf457fc84c1)" style="fill: #ffffff; opacity: 0.95; stroke: #cbd5e0; stroke-linejoin: miter"/>
    </g>
    <g clip-path="url(#pf457fc84c1)">
     <!-- summary_llm -->
     <g style="fill: #172033" transform="translate(882.793531 884.932096) scale(0.09 -0.09)">
      <use xlink:href="#DejaVuSans-73"/>
      <use xlink:href="#DejaVuSans-75" transform="translate(52.099609 0)"/>
      <use xlink:href="#DejaVuSans-6d" transform="translate(115.478516 0)"/>
      <use xlink:href="#DejaVuSans-6d" transform="translate(212.890625 0)"/>
      <use xlink:href="#DejaVuSans-61" transform="translate(310.302734 0)"/>
      <use xlink:href="#DejaVuSans-72" transform="translate(371.582031 0)"/>
      <use xlink:href="#DejaVuSans-79" transform="translate(412.695312 0)"/>
      <use xlink:href="#DejaVuSans-5f" transform="translate(471.875 0)"/>
      <use xlink:href="#DejaVuSans-6c" transform="translate(521.875 0)"/>
      <use xlink:href="#DejaVuSans-6c" transform="translate(549.658203 0)"/>
      <use xlink:href="#DejaVuSans-6d" transform="translate(577.441406 0)"/>
     </g>
    </g>
   </g>
   <g id="text_33">
    <!-- Travel Planning: MCP topology -->
    <g style="fill: #262626" transform="translate(7.2 20.117344) scale(0.17 -0.17)">
     <defs>
      <path id="DejaVuSans-Bold-54" d="M 31 4666 
L 4331 4666 
L 4331 3756 
L 2784 3756 
L 2784 0 
L 1581 0 
L 1581 3756 
L 31 3756 
L 31 4666 
z
" transform="scale(0.015625)"/>
      <path id="DejaVuSans-Bold-72" d="M 3138 2547 
Q 2991 2616 2845 2648 
Q 2700 2681 2553 2681 
Q 2122 2681 1889 2404 
Q 1656 2128 1656 1613 
L 1656 0 
L 538 0 
L 538 3500 
L 1656 3500 
L 1656 2925 
Q 1872 3269 2151 3426 
Q 2431 3584 2822 3584 
Q 2878 3584 2943 3579 
Q 3009 3575 3134 3559 
L 3138 2547 
z
" transform="scale(0.015625)"/>
      <path id="DejaVuSans-Bold-61" d="M 2106 1575 
Q 1756 1575 1579 1456 
Q 1403 1338 1403 1106 
Q 1403 894 1545 773 
Q 1688 653 1941 653 
Q 2256 653 2472 879 
Q 2688 1106 2688 1447 
L 2688 1575 
L 2106 1575 
z
M 3816 1997 
L 3816 0 
L 2688 0 
L 2688 519 
Q 2463 200 2181 54 
Q 1900 -91 1497 -91 
Q 953 -91 614 226 
Q 275 544 275 1050 
Q 275 1666 698 1953 
Q 1122 2241 2028 2241 
L 2688 2241 
L 2688 2328 
Q 2688 2594 2478 2717 
Q 2269 2841 1825 2841 
Q 1466 2841 1156 2769 
Q 847 2697 581 2553 
L 581 3406 
Q 941 3494 1303 3539 
Q 1666 3584 2028 3584 
Q 2975 3584 3395 3211 
Q 3816 2838 3816 1997 
z
" transform="scale(0.015625)"/>
      <path id="DejaVuSans-Bold-76" d="M 97 3500 
L 1216 3500 
L 2088 1081 
L 2956 3500 
L 4078 3500 
L 2700 0 
L 1472 0 
L 97 3500 
z
" transform="scale(0.015625)"/>
      <path id="DejaVuSans-Bold-65" d="M 4031 1759 
L 4031 1441 
L 1416 1441 
Q 1456 1047 1700 850 
Q 1944 653 2381 653 
Q 2734 653 3104 758 
Q 3475 863 3866 1075 
L 3866 213 
Q 3469 63 3072 -14 
Q 2675 -91 2278 -91 
Q 1328 -91 801 392 
Q 275 875 275 1747 
Q 275 2603 792 3093 
Q 1309 3584 2216 3584 
Q 3041 3584 3536 3087 
Q 4031 2591 4031 1759 
z
M 2881 2131 
Q 2881 2450 2695 2645 
Q 2509 2841 2209 2841 
Q 1884 2841 1681 2658 
Q 1478 2475 1428 2131 
L 2881 2131 
z
" transform="scale(0.015625)"/>
      <path id="DejaVuSans-Bold-6c" d="M 538 4863 
L 1656 4863 
L 1656 0 
L 538 0 
L 538 4863 
z
" transform="scale(0.015625)"/>
      <path id="DejaVuSans-Bold-20" transform="scale(0.015625)"/>
      <path id="DejaVuSans-Bold-50" d="M 588 4666 
L 2584 4666 
Q 3475 4666 3951 4270 
Q 4428 3875 4428 3144 
Q 4428 2409 3951 2014 
Q 3475 1619 2584 1619 
L 1791 1619 
L 1791 0 
L 588 0 
L 588 4666 
z
M 1791 3794 
L 1791 2491 
L 2456 2491 
Q 2806 2491 2997 2661 
Q 3188 2831 3188 3144 
Q 3188 3456 2997 3625 
Q 2806 3794 2456 3794 
L 1791 3794 
z
" transform="scale(0.015625)"/>
      <path id="DejaVuSans-Bold-6e" d="M 4056 2131 
L 4056 0 
L 2931 0 
L 2931 347 
L 2931 1631 
Q 2931 2084 2911 2256 
Q 2891 2428 2841 2509 
Q 2775 2619 2662 2680 
Q 2550 2741 2406 2741 
Q 2056 2741 1856 2470 
Q 1656 2200 1656 1722 
L 1656 0 
L 538 0 
L 538 3500 
L 1656 3500 
L 1656 2988 
Q 1909 3294 2193 3439 
Q 2478 3584 2822 3584 
Q 3428 3584 3742 3212 
Q 4056 2841 4056 2131 
z
" transform="scale(0.015625)"/>
      <path id="DejaVuSans-Bold-69" d="M 538 3500 
L 1656 3500 
L 1656 0 
L 538 0 
L 538 3500 
z
M 538 4863 
L 1656 4863 
L 1656 3950 
L 538 3950 
L 538 4863 
z
" transform="scale(0.015625)"/>
      <path id="DejaVuSans-Bold-67" d="M 2919 594 
Q 2688 288 2409 144 
Q 2131 0 1766 0 
Q 1125 0 706 504 
Q 288 1009 288 1791 
Q 288 2575 706 3076 
Q 1125 3578 1766 3578 
Q 2131 3578 2409 3434 
Q 2688 3291 2919 2981 
L 2919 3500 
L 4044 3500 
L 4044 353 
Q 4044 -491 3511 -936 
Q 2978 -1381 1966 -1381 
Q 1638 -1381 1331 -1331 
Q 1025 -1281 716 -1178 
L 716 -306 
Q 1009 -475 1290 -558 
Q 1572 -641 1856 -641 
Q 2406 -641 2662 -400 
Q 2919 -159 2919 353 
L 2919 594 
z
M 2181 2772 
Q 1834 2772 1640 2515 
Q 1447 2259 1447 1791 
Q 1447 1309 1634 1061 
Q 1822 813 2181 813 
Q 2531 813 2725 1069 
Q 2919 1325 2919 1791 
Q 2919 2259 2725 2515 
Q 2531 2772 2181 2772 
z
" transform="scale(0.015625)"/>
      <path id="DejaVuSans-Bold-3a" d="M 716 3500 
L 1844 3500 
L 1844 2291 
L 716 2291 
L 716 3500 
z
M 716 1209 
L 1844 1209 
L 1844 0 
L 716 0 
L 716 1209 
z
" transform="scale(0.015625)"/>
      <path id="DejaVuSans-Bold-4d" d="M 588 4666 
L 2119 4666 
L 3181 2169 
L 4250 4666 
L 5778 4666 
L 5778 0 
L 4641 0 
L 4641 3413 
L 3566 897 
L 2803 897 
L 1728 3413 
L 1728 0 
L 588 0 
L 588 4666 
z
" transform="scale(0.015625)"/>
      <path id="DejaVuSans-Bold-43" d="M 4288 256 
Q 3956 84 3597 -3 
Q 3238 -91 2847 -91 
Q 1681 -91 1000 561 
Q 319 1213 319 2328 
Q 319 3447 1000 4098 
Q 1681 4750 2847 4750 
Q 3238 4750 3597 4662 
Q 3956 4575 4288 4403 
L 4288 3438 
Q 3953 3666 3628 3772 
Q 3303 3878 2944 3878 
Q 2300 3878 1931 3465 
Q 1563 3053 1563 2328 
Q 1563 1606 1931 1193 
Q 2300 781 2944 781 
Q 3303 781 3628 887 
Q 3953 994 4288 1222 
L 4288 256 
z
" transform="scale(0.015625)"/>
      <path id="DejaVuSans-Bold-74" d="M 1759 4494 
L 1759 3500 
L 2913 3500 
L 2913 2700 
L 1759 2700 
L 1759 1216 
Q 1759 972 1856 886 
Q 1953 800 2241 800 
L 2816 800 
L 2816 0 
L 1856 0 
Q 1194 0 917 276 
Q 641 553 641 1216 
L 641 2700 
L 84 2700 
L 84 3500 
L 641 3500 
L 641 4494 
L 1759 4494 
z
" transform="scale(0.015625)"/>
      <path id="DejaVuSans-Bold-6f" d="M 2203 2784 
Q 1831 2784 1636 2517 
Q 1441 2250 1441 1747 
Q 1441 1244 1636 976 
Q 1831 709 2203 709 
Q 2569 709 2762 976 
Q 2956 1244 2956 1747 
Q 2956 2250 2762 2517 
Q 2569 2784 2203 2784 
z
M 2203 3584 
Q 3106 3584 3614 3096 
Q 4122 2609 4122 1747 
Q 4122 884 3614 396 
Q 3106 -91 2203 -91 
Q 1297 -91 786 396 
Q 275 884 275 1747 
Q 275 2609 786 3096 
Q 1297 3584 2203 3584 
z
" transform="scale(0.015625)"/>
      <path id="DejaVuSans-Bold-70" d="M 1656 506 
L 1656 -1331 
L 538 -1331 
L 538 3500 
L 1656 3500 
L 1656 2988 
Q 1888 3294 2169 3439 
Q 2450 3584 2816 3584 
Q 3463 3584 3878 3070 
Q 4294 2556 4294 1747 
Q 4294 938 3878 423 
Q 3463 -91 2816 -91 
Q 2450 -91 2169 54 
Q 1888 200 1656 506 
z
M 2400 2772 
Q 2041 2772 1848 2508 
Q 1656 2244 1656 1747 
Q 1656 1250 1848 986 
Q 2041 722 2400 722 
Q 2759 722 2948 984 
Q 3138 1247 3138 1747 
Q 3138 2247 2948 2509 
Q 2759 2772 2400 2772 
z
" transform="scale(0.015625)"/>
      <path id="DejaVuSans-Bold-79" d="M 78 3500 
L 1197 3500 
L 2138 1125 
L 2938 3500 
L 4056 3500 
L 2584 -331 
Q 2363 -916 2067 -1148 
Q 1772 -1381 1288 -1381 
L 641 -1381 
L 641 -647 
L 991 -647 
Q 1275 -647 1404 -556 
Q 1534 -466 1606 -231 
L 1638 -134 
L 78 3500 
z
" transform="scale(0.015625)"/>
     </defs>
     <use xlink:href="#DejaVuSans-Bold-54"/>
     <use xlink:href="#DejaVuSans-Bold-72" transform="translate(57.212891 0)"/>
     <use xlink:href="#DejaVuSans-Bold-61" transform="translate(106.529297 0)"/>
     <use xlink:href="#DejaVuSans-Bold-76" transform="translate(174.009766 0)"/>
     <use xlink:href="#DejaVuSans-Bold-65" transform="translate(239.195312 0)"/>
     <use xlink:href="#DejaVuSans-Bold-6c" transform="translate(307.017578 0)"/>
     <use xlink:href="#DejaVuSans-Bold-20" transform="translate(341.294922 0)"/>
     <use xlink:href="#DejaVuSans-Bold-50" transform="translate(376.109375 0)"/>
     <use xlink:href="#DejaVuSans-Bold-6c" transform="translate(449.400391 0)"/>
     <use xlink:href="#DejaVuSans-Bold-61" transform="translate(483.677734 0)"/>
     <use xlink:href="#DejaVuSans-Bold-6e" transform="translate(551.158203 0)"/>
     <use xlink:href="#DejaVuSans-Bold-6e" transform="translate(622.349609 0)"/>
     <use xlink:href="#DejaVuSans-Bold-69" transform="translate(693.541016 0)"/>
     <use xlink:href="#DejaVuSans-Bold-6e" transform="translate(727.818359 0)"/>
     <use xlink:href="#DejaVuSans-Bold-67" transform="translate(799.009766 0)"/>
     <use xlink:href="#DejaVuSans-Bold-3a" transform="translate(870.591797 0)"/>
     <use xlink:href="#DejaVuSans-Bold-20" transform="translate(910.582031 0)"/>
     <use xlink:href="#DejaVuSans-Bold-4d" transform="translate(945.396484 0)"/>
     <use xlink:href="#DejaVuSans-Bold-43" transform="translate(1044.908203 0)"/>
     <use xlink:href="#DejaVuSans-Bold-50" transform="translate(1118.296875 0)"/>
     <use xlink:href="#DejaVuSans-Bold-20" transform="translate(1191.587891 0)"/>
     <use xlink:href="#DejaVuSans-Bold-74" transform="translate(1226.402344 0)"/>
     <use xlink:href="#DejaVuSans-Bold-6f" transform="translate(1274.205078 0)"/>
     <use xlink:href="#DejaVuSans-Bold-70" transform="translate(1342.90625 0)"/>
     <use xlink:href="#DejaVuSans-Bold-6f" transform="translate(1414.488281 0)"/>
     <use xlink:href="#DejaVuSans-Bold-6c" transform="translate(1483.189453 0)"/>
     <use xlink:href="#DejaVuSans-Bold-6f" transform="translate(1517.466797 0)"/>
     <use xlink:href="#DejaVuSans-Bold-67" transform="translate(1586.167969 0)"/>
     <use xlink:href="#DejaVuSans-Bold-79" transform="translate(1657.75 0)"/>
    </g>
   </g>
  </g>
 </g>
 <defs>
  <clipPath id="pf457fc84c1">
   <rect x="7.2" y="36.117344" width="1630.08" height="934.4"/>
  </clipPath>
 </defs>
 <defs>
  <pattern id="hbc0fce0382" patternUnits="userSpaceOnUse" x="0" y="0" width="72" height="72">
   <rect x="0" y="0" width="73" height="73" fill="#dbeafe"/>
   <path d="M -36 36 
L 36 -36 
M -32 40 
L 40 -32 
M -28 44 
L 44 -28 
M -24 48 
L 48 -24 
M -20 52 
L 52 -20 
M -16 56 
L 56 -16 
M -12 60 
L 60 -12 
M -8 64 
L 64 -8 
M -4 68 
L 68 -4 
M 0 72 
L 72 0 
M 4 76 
L 76 4 
M 8 80 
L 80 8 
M 12 84 
L 84 12 
M 16 88 
L 88 16 
M 20 92 
L 92 20 
M 24 96 
L 96 24 
M 28 100 
L 100 28 
M 32 104 
L 104 32 
M 36 108 
L 108 36 
" style="fill: #5f7f95; stroke: #5f7f95; stroke-width: 1.0; stroke-linecap: butt; stroke-linejoin: miter; stroke-opacity: 0.25"/>
  </pattern>
 </defs>
</svg>
