<?xml version="1.0" encoding="utf-8" standalone="no"?>
<!DOCTYPE svg PUBLIC "-//W3C//DTD SVG 1.1//EN"
  "http://www.w3.org/Graphics/SVG/1.1/DTD/svg11.dtd">
<svg xmlns:xlink="http://www.w3.org/1999/xlink" width="1428.48pt" height="851.717344pt" viewBox="0 0 1428.48 851.717344" xmlns="http://www.w3.org/2000/svg" version="1.1">
 <metadata>
  <rdf:RDF xmlns:dc="http://purl.org/dc/elements/1.1/" xmlns:cc="http://creativecommons.org/ns#" xmlns:rdf="http://www.w3.org/1999/02/22-rdf-syntax-ns#">
   <cc:Work>
    <dc:type rdf:resource="http://purl.org/dc/dcmitype/StillImage"/>
    <dc:date>2026-05-09T18:25:08.993914</dc:date>
    <dc:format>image/svg+xml</dc:format>
    <dc:creator>
     <cc:Agent>
      <dc:title>Matplotlib v3.10.9, https://matplotlib.org/</dc:title>
     </cc:Agent>
    </dc:creator>
   </cc:Work>
  </rdf:RDF>
 </metadata>
 <defs>
  <style type="text/css">*{stroke-linejoin: round; stroke-linecap: butt}</style>
 </defs>
 <g id="figure_1">
  <g id="patch_1">
   <path d="M 0 851.717344 
L 1428.48 851.717344 
L 1428.48 0 
L 0 0 
z
" style="fill: #ffffff"/>
  </g>
  <g id="axes_1">
   <g id="patch_2">
    <path d="M 301.28357 598.22481 
L 456.776032 598.22481 
L 456.776032 392.89121 
L 301.28357 392.89121 
z
" clip-path="url(#pd64299aab3)" style="fill: #edf2f7; opacity: 0.48; stroke: #a0aec0; stroke-width: 1.1; stroke-linejoin: miter"/>
   </g>
   <g id="patch_3">
    <path d="M 715.366757 291.03281 
L 870.859219 291.03281 
L 870.859219 85.69921 
L 715.366757 85.69921 
z
" clip-path="url(#pd64299aab3)" style="fill: #edf2f7; opacity: 0.48; stroke: #a0aec0; stroke-width: 1.1; stroke-linejoin: miter"/>
   </g>
   <g id="patch_4">
    <path d="M 1221.280637 779.845344 
L 1339.59012 779.845344 
L 1339.59012 704.394677 
L 1221.280637 704.394677 
z
" clip-path="url(#pd64299aab3)" style="fill: url(#hc2365f7093); opacity: 0.25; stroke-dasharray: 4.44,1.92; stroke-dashoffset: 0; stroke: #5f7f95; stroke-width: 1.2; stroke-linejoin: miter"/>
   </g>
   <g id="text_1">
    <!-- weather container -->
    <g style="fill: #4a5568" transform="translate(305.790598 409.748627) scale(0.08 -0.08)">
     <defs>
      <path id="DejaVuSans-77" d="M 269 3500 
L 844 3500 
L 1563 769 
L 2278 3500 
L 2956 3500 
L 3675 769 
L 4391 3500 
L 4966 3500 
L 4050 0 
L 3372 0 
L 2619 2869 
L 1863 0 
L 1184 0 
L 269 3500 
z
" transform="scale(0.015625)"/>
      <path id="DejaVuSans-65" d="M 3597 1894 
L 3597 1613 
L 953 1613 
Q 991 1019 1311 708 
Q 1631 397 2203 397 
Q 2534 397 2845 478 
Q 3156 559 3463 722 
L 3463 178 
Q 3153 47 2828 -22 
Q 2503 -91 2169 -91 
Q 1331 -91 842 396 
Q 353 884 353 1716 
Q 353 2575 817 3079 
Q 1281 3584 2069 3584 
Q 2775 3584 3186 3129 
Q 3597 2675 3597 1894 
z
M 3022 2063 
Q 3016 2534 2758 2815 
Q 2500 3097 2075 3097 
Q 1594 3097 1305 2825 
Q 1016 2553 972 2059 
L 3022 2063 
z
" transform="scale(0.015625)"/>
      <path id="DejaVuSans-61" d="M 2194 1759 
Q 1497 1759 1228 1600 
Q 959 1441 959 1056 
Q 959 750 1161 570 
Q 1363 391 1709 391 
Q 2188 391 2477 730 
Q 2766 1069 2766 1631 
L 2766 1759 
L 2194 1759 
z
M 3341 1997 
L 3341 0 
L 2766 0 
L 2766 531 
Q 2569 213 2275 61 
Q 1981 -91 1556 -91 
Q 1019 -91 701 211 
Q 384 513 384 1019 
Q 384 1609 779 1909 
Q 1175 2209 1959 2209 
L 2766 2209 
L 2766 2266 
Q 2766 2663 2505 2880 
Q 2244 3097 1772 3097 
Q 1472 3097 1187 3025 
Q 903 2953 641 2809 
L 641 3341 
Q 956 3463 1253 3523 
Q 1550 3584 1831 3584 
Q 2591 3584 2966 3190 
Q 3341 2797 3341 1997 
z
" transform="scale(0.015625)"/>
      <path id="DejaVuSans-74" d="M 1172 4494 
L 1172 3500 
L 2356 3500 
L 2356 3053 
L 1172 3053 
L 1172 1153 
Q 1172 725 1289 603 
Q 1406 481 1766 481 
L 2356 481 
L 2356 0 
L 1766 0 
Q 1100 0 847 248 
Q 594 497 594 1153 
L 594 3053 
L 172 3053 
L 172 3500 
L 594 3500 
L 594 4494 
L 1172 4494 
z
" transform="scale(0.015625)"/>
      <path id="DejaVuSans-68" d="M 3513 2113 
L 3513 0 
L 2938 0 
L 2938 2094 
Q 2938 2591 2744 2837 
Q 2550 3084 2163 3084 
Q 1697 3084 1428 2787 
Q 1159 2491 1159 1978 
L 1159 0 
L 581 0 
L 581 4863 
L 1159 4863 
L 1159 2956 
Q 1366 3272 1645 3428 
Q 1925 3584 2291 3584 
Q 2894 3584 3203 3211 
Q 3513 2838 3513 2113 
z
" transform="scale(0.015625)"/>
      <path id="DejaVuSans-72" d="M 2631 2963 
Q 2534 3019 2420 3045 
Q 2306 3072 2169 3072 
Q 1681 3072 1420 2755 
Q 1159 2438 1159 1844 
L 1159 0 
L 581 0 
L 581 3500 
L 1159 3500 
L 1159 2956 
Q 1341 3275 1631 3429 
Q 1922 3584 2338 3584 
Q 2397 3584 2469 3576 
Q 2541 3569 2628 3553 
L 2631 2963 
z
" transform="scale(0.015625)"/>
      <path id="DejaVuSans-20" transform="scale(0.015625)"/>
      <path id="DejaVuSans-63" d="M 3122 3366 
L 3122 2828 
Q 2878 2963 2633 3030 
Q 2388 3097 2138 3097 
Q 1578 3097 1268 2742 
Q 959 2388 959 1747 
Q 959 1106 1268 751 
Q 1578 397 2138 397 
Q 2388 397 2633 464 
Q 2878 531 3122 666 
L 3122 134 
Q 2881 22 2623 -34 
Q 2366 -91 2075 -91 
Q 1284 -91 818 406 
Q 353 903 353 1747 
Q 353 2603 823 3093 
Q 1294 3584 2113 3584 
Q 2378 3584 2631 3529 
Q 2884 3475 3122 3366 
z
" transform="scale(0.015625)"/>
      <path id="DejaVuSans-6f" d="M 1959 3097 
Q 1497 3097 1228 2736 
Q 959 2375 959 1747 
Q 959 1119 1226 758 
Q 1494 397 1959 397 
Q 2419 397 2687 759 
Q 2956 1122 2956 1747 
Q 2956 2369 2687 2733 
Q 2419 3097 1959 3097 
z
M 1959 3584 
Q 2709 3584 3137 3096 
Q 3566 2609 3566 1747 
Q 3566 888 3137 398 
Q 2709 -91 1959 -91 
Q 1206 -91 779 398 
Q 353 888 353 1747 
Q 353 2609 779 3096 
Q 1206 3584 1959 3584 
z
" transform="scale(0.015625)"/>
      <path id="DejaVuSans-6e" d="M 3513 2113 
L 3513 0 
L 2938 0 
L 2938 2094 
Q 2938 2591 2744 2837 
Q 2550 3084 2163 3084 
Q 1697 3084 1428 2787 
Q 1159 2491 1159 1978 
L 1159 0 
L 581 0 
L 581 3500 
L 1159 3500 
L 1159 2956 
Q 1366 3272 1645 3428 
Q 1925 3584 2291 3584 
Q 2894 3584 3203 3211 
Q 3513 2838 3513 2113 
z
" transform="scale(0.015625)"/>
      <path id="DejaVuSans-69" d="M 603 3500 
L 1178 3500 
L 1178 0 
L 603 0 
L 603 3500 
z
M 603 4863 
L 1178 4863 
L 1178 4134 
L 603 4134 
L 603 4863 
z
" transform="scale(0.015625)"/>
     </defs>
     <use xlink:href="#DejaVuSans-77"/>
     <use xlink:href="#DejaVuSans-65" transform="translate(81.787109 0)"/>
     <use xlink:href="#DejaVuSans-61" transform="translate(143.310547 0)"/>
     <use xlink:href="#DejaVuSans-74" transform="translate(204.589844 0)"/>
     <use xlink:href="#DejaVuSans-68" transform="translate(243.798828 0)"/>
     <use xlink:href="#DejaVuSans-65" transform="translate(307.177734 0)"/>
     <use xlink:href="#DejaVuSans-72" transform="translate(368.701172 0)"/>
     <use xlink:href="#DejaVuSans-20" transform="translate(409.814453 0)"/>
     <use xlink:href="#DejaVuSans-63" transform="translate(441.601562 0)"/>
     <use xlink:href="#DejaVuSans-6f" transform="translate(496.582031 0)"/>
     <use xlink:href="#DejaVuSans-6e" transform="translate(557.763672 0)"/>
     <use xlink:href="#DejaVuSans-74" transform="translate(621.142578 0)"/>
     <use xlink:href="#DejaVuSans-61" transform="translate(660.351562 0)"/>
     <use xlink:href="#DejaVuSans-69" transform="translate(721.630859 0)"/>
     <use xlink:href="#DejaVuSans-6e" transform="translate(749.414062 0)"/>
     <use xlink:href="#DejaVuSans-65" transform="translate(812.792969 0)"/>
     <use xlink:href="#DejaVuSans-72" transform="translate(874.316406 0)"/>
    </g>
   </g>
   <g id="text_2">
    <!-- disaster container -->
    <g style="fill: #4a5568" transform="translate(719.873785 102.556627) scale(0.08 -0.08)">
     <defs>
      <path id="DejaVuSans-64" d="M 2906 2969 
L 2906 4863 
L 3481 4863 
L 3481 0 
L 2906 0 
L 2906 525 
Q 2725 213 2448 61 
Q 2172 -91 1784 -91 
Q 1150 -91 751 415 
Q 353 922 353 1747 
Q 353 2572 751 3078 
Q 1150 3584 1784 3584 
Q 2172 3584 2448 3432 
Q 2725 3281 2906 2969 
z
M 947 1747 
Q 947 1113 1208 752 
Q 1469 391 1925 391 
Q 2381 391 2643 752 
Q 2906 1113 2906 1747 
Q 2906 2381 2643 2742 
Q 2381 3103 1925 3103 
Q 1469 3103 1208 2742 
Q 947 2381 947 1747 
z
" transform="scale(0.015625)"/>
      <path id="DejaVuSans-73" d="M 2834 3397 
L 2834 2853 
Q 2591 2978 2328 3040 
Q 2066 3103 1784 3103 
Q 1356 3103 1142 2972 
Q 928 2841 928 2578 
Q 928 2378 1081 2264 
Q 1234 2150 1697 2047 
L 1894 2003 
Q 2506 1872 2764 1633 
Q 3022 1394 3022 966 
Q 3022 478 2636 193 
Q 2250 -91 1575 -91 
Q 1294 -91 989 -36 
Q 684 19 347 128 
L 347 722 
Q 666 556 975 473 
Q 1284 391 1588 391 
Q 1994 391 2212 530 
Q 2431 669 2431 922 
Q 2431 1156 2273 1281 
Q 2116 1406 1581 1522 
L 1381 1569 
Q 847 1681 609 1914 
Q 372 2147 372 2553 
Q 372 3047 722 3315 
Q 1072 3584 1716 3584 
Q 2034 3584 2315 3537 
Q 2597 3491 2834 3397 
z
" transform="scale(0.015625)"/>
     </defs>
     <use xlink:href="#DejaVuSans-64"/>
     <use xlink:href="#DejaVuSans-69" transform="translate(63.476562 0)"/>
     <use xlink:href="#DejaVuSans-73" transform="translate(91.259766 0)"/>
     <use xlink:href="#DejaVuSans-61" transform="translate(143.359375 0)"/>
     <use xlink:href="#DejaVuSans-73" transform="translate(204.638672 0)"/>
     <use xlink:href="#DejaVuSans-74" transform="translate(256.738281 0)"/>
     <use xlink:href="#DejaVuSans-65" transform="translate(295.947266 0)"/>
     <use xlink:href="#DejaVuSans-72" transform="translate(357.470703 0)"/>
     <use xlink:href="#DejaVuSans-20" transform="translate(398.583984 0)"/>
     <use xlink:href="#DejaVuSans-63" transform="translate(430.371094 0)"/>
     <use xlink:href="#DejaVuSans-6f" transform="translate(485.351562 0)"/>
     <use xlink:href="#DejaVuSans-6e" transform="translate(546.533203 0)"/>
     <use xlink:href="#DejaVuSans-74" transform="translate(609.912109 0)"/>
     <use xlink:href="#DejaVuSans-61" transform="translate(649.121094 0)"/>
     <use xlink:href="#DejaVuSans-69" transform="translate(710.400391 0)"/>
     <use xlink:href="#DejaVuSans-6e" transform="translate(738.183594 0)"/>
     <use xlink:href="#DejaVuSans-65" transform="translate(801.5625 0)"/>
     <use xlink:href="#DejaVuSans-72" transform="translate(863.085938 0)"/>
    </g>
   </g>
   <g id="patch_5">
    <path d="M 151.058029 456.985215 
Q 260.721788 463.084123 367.985482 457.118534 
" clip-path="url(#pd64299aab3)" style="fill: none; stroke: #1a365d; stroke-opacity: 0.95; stroke-width: 2.15; stroke-linecap: round"/>
    <path d="M 361.007172 454.101386 
L 367.985482 457.118534 
L 361.384778 460.890893 
z
" clip-path="url(#pd64299aab3)" style="fill: #1a365d; fill-opacity: 0.95; stroke: #1a365d; stroke-opacity: 0.95; stroke-width: 2.15; stroke-linecap: round"/>
   </g>
   <g id="patch_6">
    <path d="M 386.853083 452.763528 
Q 615.794754 342.954574 785.810354 157.308105 
" clip-path="url(#pd64299aab3)" style="fill: none; stroke: #2d3748; stroke-opacity: 0.88; stroke-width: 1.95; stroke-linecap: round"/>
    <path d="M 778.710378 160.026624 
L 785.810354 157.308105 
L 783.725183 164.619197 
z
" clip-path="url(#pd64299aab3)" style="fill: #2d3748; fill-opacity: 0.88; stroke: #2d3748; stroke-opacity: 0.88; stroke-width: 1.95; stroke-linecap: round"/>
   </g>
   <g id="patch_7">
    <path d="M 379.797357 465.113573 
Q 382.169598 495.559128 379.923126 524.388434 
" clip-path="url(#pd64299aab3)" style="fill: none; stroke-dasharray: 1.45,2.3925; stroke-dashoffset: 0; stroke: #6b46c1; stroke-opacity: 0.65; stroke-width: 1.45; stroke-linecap: round"/>
    <path d="M 383.841127 517.873124 
L 379.923126 524.388434 
L 377.061678 517.344847 
z
" clip-path="url(#pd64299aab3)" style="fill: #6b46c1; fill-opacity: 0.65; stroke-dasharray: 1.45,2.3925; stroke-dashoffset: 0; stroke: #6b46c1; stroke-opacity: 0.65; stroke-width: 1.45; stroke-linecap: round"/>
   </g>
   <g id="patch_8">
    <path d="M 793.880544 157.921573 
Q 796.252785 188.367128 794.006314 217.196434 
" clip-path="url(#pd64299aab3)" style="fill: none; stroke-dasharray: 1.45,2.3925; stroke-dashoffset: 0; stroke: #6b46c1; stroke-opacity: 0.65; stroke-width: 1.45; stroke-linecap: round"/>
    <path d="M 797.924314 210.681124 
L 794.006314 217.196434 
L 791.144866 210.152847 
z
" clip-path="url(#pd64299aab3)" style="fill: #6b46c1; fill-opacity: 0.65; stroke-dasharray: 1.45,2.3925; stroke-dashoffset: 0; stroke: #6b46c1; stroke-opacity: 0.65; stroke-width: 1.45; stroke-linecap: round"/>
   </g>
   <g id="patch_9">
    <path d="M 387.692386 456.493793 
Q 519.826183 455.697112 637.144767 399.149479 
" clip-path="url(#pd64299aab3)" style="fill: none; stroke-dasharray: 10.88,2.72,1.7,2.72; stroke-dashoffset: 0; stroke: #dd6b20; stroke-opacity: 0.78; stroke-width: 1.7; stroke-linecap: round"/>
    <path d="M 629.542936 399.039223 
L 637.144767 399.149479 
L 632.495463 405.164791 
z
" clip-path="url(#pd64299aab3)" style="fill: #dd6b20; fill-opacity: 0.78; stroke-dasharray: 10.88,2.72,1.7,2.72; stroke-dashoffset: 0; stroke: #dd6b20; stroke-opacity: 0.78; stroke-width: 1.7; stroke-linecap: round"/>
   </g>
   <g id="patch_10">
    <path d="M 387.683701 456.174218 
Q 880.266956 439.824428 1272.513028 736.105967 
" clip-path="url(#pd64299aab3)" style="fill: none; stroke-dasharray: 4.255,1.84; stroke-dashoffset: 0; stroke: #5f7f95; stroke-opacity: 0.34; stroke-width: 1.15; stroke-linecap: round"/>
    <path d="M 1269.93079 730.897124 
L 1272.513028 736.105967 
L 1266.796611 735.046452 
z
" clip-path="url(#pd64299aab3)" style="fill: #5f7f95; fill-opacity: 0.34; stroke-dasharray: 4.255,1.84; stroke-dashoffset: 0; stroke: #5f7f95; stroke-opacity: 0.34; stroke-width: 1.15; stroke-linecap: round"/>
   </g>
   <g id="patch_11">
    <path d="M 800.538826 153.750687 
Q 1141.238076 359.833936 1277.059172 732.763749 
" clip-path="url(#pd64299aab3)" style="fill: none; stroke-dasharray: 4.255,1.84; stroke-dashoffset: 0; stroke: #5f7f95; stroke-opacity: 0.34; stroke-width: 1.15; stroke-linecap: round"/>
    <path d="M 1277.722696 726.98796 
L 1277.059172 732.763749 
L 1272.836655 728.767457 
z
" clip-path="url(#pd64299aab3)" style="fill: #5f7f95; fill-opacity: 0.34; stroke-dasharray: 4.255,1.84; stroke-dashoffset: 0; stroke: #5f7f95; stroke-opacity: 0.34; stroke-width: 1.15; stroke-linecap: round"/>
   </g>
   <g id="text_3">
    <g id="patch_12">
     <path d="M 821.248546 604.774032 
L 838.217296 604.774032 
Q 839.817296 604.774032 839.817296 603.174032 
L 839.817296 595.431532 
Q 839.817296 593.831532 838.217296 593.831532 
L 821.248546 593.831532 
Q 819.648546 593.831532 819.648546 595.431532 
L 819.648546 603.174032 
Q 819.648546 604.774032 821.248546 604.774032 
z
" clip-path="url(#pd64299aab3)" style="fill: #ffffff; opacity: 0.62"/>
    </g>
    <g clip-path="url(#pd64299aab3)">
     <!-- OTel -->
     <g style="fill: #5f7f95" transform="translate(821.248546 601.510282) scale(0.08 -0.08)">
      <defs>
       <path id="DejaVuSans-4f" d="M 2522 4238 
Q 1834 4238 1429 3725 
Q 1025 3213 1025 2328 
Q 1025 1447 1429 934 
Q 1834 422 2522 422 
Q 3209 422 3611 934 
Q 4013 1447 4013 2328 
Q 4013 3213 3611 3725 
Q 3209 4238 2522 4238 
z
M 2522 4750 
Q 3503 4750 4090 4092 
Q 4678 3434 4678 2328 
Q 4678 1225 4090 567 
Q 3503 -91 2522 -91 
Q 1538 -91 948 565 
Q 359 1222 359 2328 
Q 359 3434 948 4092 
Q 1538 4750 2522 4750 
z
" transform="scale(0.015625)"/>
       <path id="DejaVuSans-54" d="M -19 4666 
L 3928 4666 
L 3928 4134 
L 2272 4134 
L 2272 0 
L 1638 0 
L 1638 4134 
L -19 4134 
L -19 4666 
z
" transform="scale(0.015625)"/>
       <path id="DejaVuSans-6c" d="M 603 4863 
L 1178 4863 
L 1178 0 
L 603 0 
L 603 4863 
z
" transform="scale(0.015625)"/>
      </defs>
      <use xlink:href="#DejaVuSans-4f"/>
      <use xlink:href="#DejaVuSans-54" transform="translate(78.710938 0)"/>
      <use xlink:href="#DejaVuSans-65" transform="translate(122.794922 0)"/>
      <use xlink:href="#DejaVuSans-6c" transform="translate(184.318359 0)"/>
     </g>
    </g>
   </g>
   <g id="text_4">
    <g id="patch_13">
     <path d="M 1028.289608 451.177683 
L 1045.258358 451.177683 
Q 1046.858358 451.177683 1046.858358 449.577683 
L 1046.858358 441.835183 
Q 1046.858358 440.235183 1045.258358 440.235183 
L 1028.289608 440.235183 
Q 1026.689608 440.235183 1026.689608 441.835183 
L 1026.689608 449.577683 
Q 1026.689608 451.177683 1028.289608 451.177683 
z
" clip-path="url(#pd64299aab3)" style="fill: #ffffff; opacity: 0.62"/>
    </g>
    <g clip-path="url(#pd64299aab3)">
     <!-- OTel -->
     <g style="fill: #5f7f95" transform="translate(1028.289608 447.913933) scale(0.08 -0.08)">
      <use xlink:href="#DejaVuSans-4f"/>
      <use xlink:href="#DejaVuSans-54" transform="translate(78.710938 0)"/>
      <use xlink:href="#DejaVuSans-65" transform="translate(122.794922 0)"/>
      <use xlink:href="#DejaVuSans-6c" transform="translate(184.318359 0)"/>
     </g>
    </g>
   </g>
   <g id="text_5">
    <g id="patch_14">
     <path d="M 371.121051 501.029498 
L 386.938551 501.029498 
Q 388.538551 501.029498 388.538551 499.429498 
L 388.538551 491.686998 
Q 388.538551 490.086998 386.938551 490.086998 
L 371.121051 490.086998 
Q 369.521051 490.086998 369.521051 491.686998 
L 369.521051 499.429498 
Q 369.521051 501.029498 371.121051 501.029498 
z
" clip-path="url(#pd64299aab3)" style="fill: #ffffff; opacity: 0.82"/>
    </g>
    <g clip-path="url(#pd64299aab3)">
     <!-- LLM -->
     <g style="fill: #4c1d95" transform="translate(371.121051 497.765748) scale(0.08 -0.08)">
      <defs>
       <path id="DejaVuSans-4c" d="M 628 4666 
L 1259 4666 
L 1259 531 
L 3531 531 
L 3531 0 
L 628 0 
L 628 4666 
z
" transform="scale(0.015625)"/>
       <path id="DejaVuSans-4d" d="M 628 4666 
L 1569 4666 
L 2759 1491 
L 3956 4666 
L 4897 4666 
L 4897 0 
L 4281 0 
L 4281 4097 
L 3078 897 
L 2444 897 
L 1241 4097 
L 1241 0 
L 628 0 
L 628 4666 
z
" transform="scale(0.015625)"/>
      </defs>
      <use xlink:href="#DejaVuSans-4c"/>
      <use xlink:href="#DejaVuSans-4c" transform="translate(55.712891 0)"/>
      <use xlink:href="#DejaVuSans-4d" transform="translate(111.425781 0)"/>
     </g>
    </g>
   </g>
   <g id="text_6">
    <g id="patch_15">
     <path d="M 785.204238 193.837498 
L 801.021738 193.837498 
Q 802.621738 193.837498 802.621738 192.237498 
L 802.621738 184.494998 
Q 802.621738 182.894998 801.021738 182.894998 
L 785.204238 182.894998 
Q 783.604238 182.894998 783.604238 184.494998 
L 783.604238 192.237498 
Q 783.604238 193.837498 785.204238 193.837498 
z
" clip-path="url(#pd64299aab3)" style="fill: #ffffff; opacity: 0.82"/>
    </g>
    <g clip-path="url(#pd64299aab3)">
     <!-- LLM -->
     <g style="fill: #4c1d95" transform="translate(785.204238 190.573748) scale(0.08 -0.08)">
      <use xlink:href="#DejaVuSans-4c"/>
      <use xlink:href="#DejaVuSans-4c" transform="translate(55.712891 0)"/>
      <use xlink:href="#DejaVuSans-4d" transform="translate(111.425781 0)"/>
     </g>
    </g>
   </g>
   <g id="text_7">
    <g id="patch_16">
     <path d="M 475.466044 430.967324 
L 550.203544 430.967324 
Q 551.803544 430.967324 551.803544 429.367324 
L 551.803544 421.624824 
Q 551.803544 420.024824 550.203544 420.024824 
L 475.466044 420.024824 
Q 473.866044 420.024824 473.866044 421.624824 
L 473.866044 429.367324 
Q 473.866044 430.967324 475.466044 430.967324 
z
" clip-path="url(#pd64299aab3)" style="fill: #ffffff; opacity: 0.86"/>
    </g>
    <g clip-path="url(#pd64299aab3)">
     <!-- mock weather tool -->
     <g style="fill: #9c4221" transform="translate(475.466044 427.703574) scale(0.08 -0.08)">
      <defs>
       <path id="DejaVuSans-6d" d="M 3328 2828 
Q 3544 3216 3844 3400 
Q 4144 3584 4550 3584 
Q 5097 3584 5394 3201 
Q 5691 2819 5691 2113 
L 5691 0 
L 5113 0 
L 5113 2094 
Q 5113 2597 4934 2840 
Q 4756 3084 4391 3084 
Q 3944 3084 3684 2787 
Q 3425 2491 3425 1978 
L 3425 0 
L 2847 0 
L 2847 2094 
Q 2847 2600 2669 2842 
Q 2491 3084 2119 3084 
Q 1678 3084 1418 2786 
Q 1159 2488 1159 1978 
L 1159 0 
L 581 0 
L 581 3500 
L 1159 3500 
L 1159 2956 
Q 1356 3278 1631 3431 
Q 1906 3584 2284 3584 
Q 2666 3584 2933 3390 
Q 3200 3197 3328 2828 
z
" transform="scale(0.015625)"/>
       <path id="DejaVuSans-6b" d="M 581 4863 
L 1159 4863 
L 1159 1991 
L 2875 3500 
L 3609 3500 
L 1753 1863 
L 3688 0 
L 2938 0 
L 1159 1709 
L 1159 0 
L 581 0 
L 581 4863 
z
" transform="scale(0.015625)"/>
      </defs>
      <use xlink:href="#DejaVuSans-6d"/>
      <use xlink:href="#DejaVuSans-6f" transform="translate(97.412109 0)"/>
      <use xlink:href="#DejaVuSans-63" transform="translate(158.59375 0)"/>
      <use xlink:href="#DejaVuSans-6b" transform="translate(213.574219 0)"/>
      <use xlink:href="#DejaVuSans-20" transform="translate(271.484375 0)"/>
      <use xlink:href="#DejaVuSans-77" transform="translate(303.271484 0)"/>
      <use xlink:href="#DejaVuSans-65" transform="translate(385.058594 0)"/>
      <use xlink:href="#DejaVuSans-61" transform="translate(446.582031 0)"/>
      <use xlink:href="#DejaVuSans-74" transform="translate(507.861328 0)"/>
      <use xlink:href="#DejaVuSans-68" transform="translate(547.070312 0)"/>
      <use xlink:href="#DejaVuSans-65" transform="translate(610.449219 0)"/>
      <use xlink:href="#DejaVuSans-72" transform="translate(671.972656 0)"/>
      <use xlink:href="#DejaVuSans-20" transform="translate(713.085938 0)"/>
      <use xlink:href="#DejaVuSans-74" transform="translate(744.873047 0)"/>
      <use xlink:href="#DejaVuSans-6f" transform="translate(784.082031 0)"/>
      <use xlink:href="#DejaVuSans-6f" transform="translate(845.263672 0)"/>
      <use xlink:href="#DejaVuSans-6c" transform="translate(906.445312 0)"/>
     </g>
    </g>
   </g>
   <g id="text_8">
    <g id="patch_17">
     <path d="M 250.486076 461.956594 
L 270.958576 461.956594 
Q 272.558576 461.956594 272.558576 460.356594 
L 272.558576 452.614094 
Q 272.558576 451.014094 270.958576 451.014094 
L 250.486076 451.014094 
Q 248.886076 451.014094 248.886076 452.614094 
L 248.886076 460.356594 
Q 248.886076 461.956594 250.486076 461.956594 
z
" clip-path="url(#pd64299aab3)" style="fill: #ffffff; opacity: 0.9"/>
    </g>
    <g clip-path="url(#pd64299aab3)">
     <!-- HTTP -->
     <g style="fill: #1a365d" transform="translate(250.486076 458.692844) scale(0.08 -0.08)">
      <defs>
       <path id="DejaVuSans-48" d="M 628 4666 
L 1259 4666 
L 1259 2753 
L 3553 2753 
L 3553 4666 
L 4184 4666 
L 4184 0 
L 3553 0 
L 3553 2222 
L 1259 2222 
L 1259 0 
L 628 0 
L 628 4666 
z
" transform="scale(0.015625)"/>
       <path id="DejaVuSans-50" d="M 1259 4147 
L 1259 2394 
L 2053 2394 
Q 2494 2394 2734 2622 
Q 2975 2850 2975 3272 
Q 2975 3691 2734 3919 
Q 2494 4147 2053 4147 
L 1259 4147 
z
M 628 4666 
L 2053 4666 
Q 2838 4666 3239 4311 
Q 3641 3956 3641 3272 
Q 3641 2581 3239 2228 
Q 2838 1875 2053 1875 
L 1259 1875 
L 1259 0 
L 628 0 
L 628 4666 
z
" transform="scale(0.015625)"/>
      </defs>
      <use xlink:href="#DejaVuSans-48"/>
      <use xlink:href="#DejaVuSans-54" transform="translate(75.195312 0)"/>
      <use xlink:href="#DejaVuSans-54" transform="translate(134.529297 0)"/>
      <use xlink:href="#DejaVuSans-50" transform="translate(195.613281 0)"/>
     </g>
    </g>
   </g>
   <g id="text_9">
    <g id="patch_18">
     <path d="M 561.668259 308.361065 
L 610.473259 308.361065 
Q 612.073259 308.361065 612.073259 306.761065 
L 612.073259 299.018565 
Q 612.073259 297.418565 610.473259 297.418565 
L 561.668259 297.418565 
Q 560.068259 297.418565 560.068259 299.018565 
L 560.068259 306.761065 
Q 560.068259 308.361065 561.668259 308.361065 
z
" clip-path="url(#pd64299aab3)" style="fill: #ffffff; opacity: 0.88"/>
    </g>
    <g clip-path="url(#pd64299aab3)">
     <!-- HTTP: query -->
     <g style="fill: #2d3748" transform="translate(561.668259 305.097315) scale(0.08 -0.08)">
      <defs>
       <path id="DejaVuSans-3a" d="M 750 794 
L 1409 794 
L 1409 0 
L 750 0 
L 750 794 
z
M 750 3309 
L 1409 3309 
L 1409 2516 
L 750 2516 
L 750 3309 
z
" transform="scale(0.015625)"/>
       <path id="DejaVuSans-71" d="M 947 1747 
Q 947 1113 1208 752 
Q 1469 391 1925 391 
Q 2381 391 2643 752 
Q 2906 1113 2906 1747 
Q 2906 2381 2643 2742 
Q 2381 3103 1925 3103 
Q 1469 3103 1208 2742 
Q 947 2381 947 1747 
z
M 2906 525 
Q 2725 213 2448 61 
Q 2172 -91 1784 -91 
Q 1150 -91 751 415 
Q 353 922 353 1747 
Q 353 2572 751 3078 
Q 1150 3584 1784 3584 
Q 2172 3584 2448 3432 
Q 2725 3281 2906 2969 
L 2906 3500 
L 3481 3500 
L 3481 -1331 
L 2906 -1331 
L 2906 525 
z
" transform="scale(0.015625)"/>
       <path id="DejaVuSans-75" d="M 544 1381 
L 544 3500 
L 1119 3500 
L 1119 1403 
Q 1119 906 1312 657 
Q 1506 409 1894 409 
Q 2359 409 2629 706 
Q 2900 1003 2900 1516 
L 2900 3500 
L 3475 3500 
L 3475 0 
L 2900 0 
L 2900 538 
Q 2691 219 2414 64 
Q 2138 -91 1772 -91 
Q 1169 -91 856 284 
Q 544 659 544 1381 
z
M 1991 3584 
L 1991 3584 
z
" transform="scale(0.015625)"/>
       <path id="DejaVuSans-79" d="M 2059 -325 
Q 1816 -950 1584 -1140 
Q 1353 -1331 966 -1331 
L 506 -1331 
L 506 -850 
L 844 -850 
Q 1081 -850 1212 -737 
Q 1344 -625 1503 -206 
L 1606 56 
L 191 3500 
L 800 3500 
L 1894 763 
L 2988 3500 
L 3597 3500 
L 2059 -325 
z
" transform="scale(0.015625)"/>
      </defs>
      <use xlink:href="#DejaVuSans-48"/>
      <use xlink:href="#DejaVuSans-54" transform="translate(75.195312 0)"/>
      <use xlink:href="#DejaVuSans-54" transform="translate(134.529297 0)"/>
      <use xlink:href="#DejaVuSans-50" transform="translate(195.613281 0)"/>
      <use xlink:href="#DejaVuSans-3a" transform="translate(255.916016 0)"/>
      <use xlink:href="#DejaVuSans-20" transform="translate(289.607422 0)"/>
      <use xlink:href="#DejaVuSans-71" transform="translate(321.394531 0)"/>
      <use xlink:href="#DejaVuSans-75" transform="translate(384.871094 0)"/>
      <use xlink:href="#DejaVuSans-65" transform="translate(448.25 0)"/>
      <use xlink:href="#DejaVuSans-72" transform="translate(509.773438 0)"/>
      <use xlink:href="#DejaVuSans-79" transform="translate(550.886719 0)"/>
     </g>
    </g>
   </g>
   <g id="PathCollection_1">
    <defs>
     <path id="m502ddfe73c" d="M -19.364917 19.364917 
L 19.364917 19.364917 
L 19.364917 -19.364917 
L -19.364917 -19.364917 
z
" style="stroke: #ffffff; stroke-width: 1.8"/>
    </defs>
    <g clip-path="url(#pd64299aab3)">
     <use xlink:href="#m502ddfe73c" x="142.410837" y="456.485344" style="fill: #1a365d; stroke: #ffffff; stroke-width: 1.8"/>
    </g>
   </g>
   <g id="PathCollection_2">
    <defs>
     <path id="m2fb6c3f750" d="M 0 21.505813 
C 5.703408 21.505813 11.173988 19.239825 15.206906 15.206906 
C 19.239825 11.173988 21.505813 5.703408 21.505813 0 
C 21.505813 -5.703408 19.239825 -11.173988 15.206906 -15.206906 
C 11.173988 -19.239825 5.703408 -21.505813 0 -21.505813 
C -5.703408 -21.505813 -11.173988 -19.239825 -15.206906 -15.206906 
C -19.239825 -11.173988 -21.505813 -5.703408 -21.505813 0 
C -21.505813 5.703408 -19.239825 11.173988 -15.206906 15.206906 
C -11.173988 19.239825 -5.703408 21.505813 0 21.505813 
z
" style="stroke: #ffffff; stroke-width: 1.8"/>
    </defs>
    <g clip-path="url(#pd64299aab3)">
     <use xlink:href="#m2fb6c3f750" x="379.029801" y="456.485344" style="fill: #2f855a; stroke: #ffffff; stroke-width: 1.8"/>
     <use xlink:href="#m2fb6c3f750" x="793.112988" y="149.293344" style="fill: #2f855a; stroke: #ffffff; stroke-width: 1.8"/>
    </g>
   </g>
   <g id="PathCollection_3">
    <defs>
     <path id="m7204d57714" d="M 0 15.411035 
C 4.087054 15.411035 8.007264 13.787231 10.897247 10.897247 
C 13.787231 8.007264 15.411035 4.087054 15.411035 0 
C 15.411035 -4.087054 13.787231 -8.007264 10.897247 -10.897247 
C 8.007264 -13.787231 4.087054 -15.411035 0 -15.411035 
C -4.087054 -15.411035 -8.007264 -13.787231 -10.897247 -10.897247 
C -13.787231 -8.007264 -15.411035 -4.087054 -15.411035 0 
C -15.411035 4.087054 -13.787231 8.007264 -10.897247 10.897247 
C -8.007264 13.787231 -4.087054 15.411035 0 15.411035 
z
" style="stroke: #ffffff; stroke-width: 1.8"/>
    </defs>
    <g clip-path="url(#pd64299aab3)">
     <use xlink:href="#m7204d57714" x="379.029801" y="534.630677" style="fill: #553c9a; stroke: #ffffff; stroke-width: 1.8"/>
     <use xlink:href="#m7204d57714" x="793.112988" y="227.438677" style="fill: #553c9a; stroke: #ffffff; stroke-width: 1.8"/>
    </g>
   </g>
   <g id="PathCollection_4">
    <defs>
     <path id="m2ec2c30c81" d="M -0 22.912878 
L 22.912878 0 
L 0 -22.912878 
L -22.912878 -0 
z
" style="stroke: #ffffff; stroke-width: 1.8"/>
    </defs>
    <g clip-path="url(#pd64299aab3)">
     <use xlink:href="#m2ec2c30c81" x="646.634582" y="394.50801" style="fill: #c05621; stroke: #ffffff; stroke-width: 1.8"/>
    </g>
   </g>
   <g id="PathCollection_5">
    <defs>
     <path id="m68c7508d66" d="M 0 -17.320508 
L -15 -8.660254 
L -15 8.660254 
L -0 17.320508 
L 15 8.660254 
L 15 -8.660254 
z
" style="stroke: #ffffff; stroke-opacity: 0.38; stroke-width: 1.8"/>
    </defs>
    <g clip-path="url(#pd64299aab3)">
     <use xlink:href="#m68c7508d66" x="1280.435378" y="742.12001" style="fill: #6b8aa3; fill-opacity: 0.38; stroke: #ffffff; stroke-opacity: 0.38; stroke-width: 1.8"/>
    </g>
   </g>
   <g id="text_10">
    <g id="patch_19">
     <path d="M 114.915134 432.102367 
L 169.90654 432.102367 
Q 172.42654 432.102367 172.42654 429.582367 
L 172.42654 420.872054 
Q 172.42654 418.352054 169.90654 418.352054 
L 114.915134 418.352054 
Q 112.395134 418.352054 112.395134 420.872054 
L 112.395134 429.582367 
Q 112.395134 432.102367 114.915134 432.102367 
z
" clip-path="url(#pd64299aab3)" style="fill: #ffffff; opacity: 0.95; stroke: #cbd5e0; stroke-linejoin: miter"/>
    </g>
    <g clip-path="url(#pd64299aab3)">
     <!-- Weather API -->
     <g style="fill: #172033" transform="translate(114.915134 427.710648) scale(0.09 -0.09)">
      <defs>
       <path id="DejaVuSans-57" d="M 213 4666 
L 850 4666 
L 1831 722 
L 2809 4666 
L 3519 4666 
L 4500 722 
L 5478 4666 
L 6119 4666 
L 4947 0 
L 4153 0 
L 3169 4050 
L 2175 0 
L 1381 0 
L 213 4666 
z
" transform="scale(0.015625)"/>
       <path id="DejaVuSans-41" d="M 2188 4044 
L 1331 1722 
L 3047 1722 
L 2188 4044 
z
M 1831 4666 
L 2547 4666 
L 4325 0 
L 3669 0 
L 3244 1197 
L 1141 1197 
L 716 0 
L 50 0 
L 1831 4666 
z
" transform="scale(0.015625)"/>
       <path id="DejaVuSans-49" d="M 628 4666 
L 1259 4666 
L 1259 0 
L 628 0 
L 628 4666 
z
" transform="scale(0.015625)"/>
      </defs>
      <use xlink:href="#DejaVuSans-57"/>
      <use xlink:href="#DejaVuSans-65" transform="translate(93.001953 0)"/>
      <use xlink:href="#DejaVuSans-61" transform="translate(154.525391 0)"/>
      <use xlink:href="#DejaVuSans-74" transform="translate(215.804688 0)"/>
      <use xlink:href="#DejaVuSans-68" transform="translate(255.013672 0)"/>
      <use xlink:href="#DejaVuSans-65" transform="translate(318.392578 0)"/>
      <use xlink:href="#DejaVuSans-72" transform="translate(379.916016 0)"/>
      <use xlink:href="#DejaVuSans-20" transform="translate(421.029297 0)"/>
      <use xlink:href="#DejaVuSans-41" transform="translate(452.816406 0)"/>
      <use xlink:href="#DejaVuSans-50" transform="translate(521.224609 0)"/>
      <use xlink:href="#DejaVuSans-49" transform="translate(581.527344 0)"/>
     </g>
    </g>
   </g>
   <g id="text_11">
    <g id="patch_20">
     <path d="M 1266.105691 777.0197 
L 1294.765066 777.0197 
Q 1297.285066 777.0197 1297.285066 774.4997 
L 1297.285066 765.789387 
Q 1297.285066 763.269387 1294.765066 763.269387 
L 1266.105691 763.269387 
Q 1263.585691 763.269387 1263.585691 765.789387 
L 1263.585691 774.4997 
Q 1263.585691 777.0197 1266.105691 777.0197 
z
" clip-path="url(#pd64299aab3)" style="fill: #ffffff; opacity: 0.95; stroke: #cbd5e0; stroke-linejoin: miter"/>
    </g>
    <g clip-path="url(#pd64299aab3)">
     <!-- Jaeger -->
     <g style="fill: #172033" transform="translate(1266.105691 772.627981) scale(0.09 -0.09)">
      <defs>
       <path id="DejaVuSans-4a" d="M 628 4666 
L 1259 4666 
L 1259 325 
Q 1259 -519 939 -900 
Q 619 -1281 -91 -1281 
L -331 -1281 
L -331 -750 
L -134 -750 
Q 284 -750 456 -515 
Q 628 -281 628 325 
L 628 4666 
z
" transform="scale(0.015625)"/>
       <path id="DejaVuSans-67" d="M 2906 1791 
Q 2906 2416 2648 2759 
Q 2391 3103 1925 3103 
Q 1463 3103 1205 2759 
Q 947 2416 947 1791 
Q 947 1169 1205 825 
Q 1463 481 1925 481 
Q 2391 481 2648 825 
Q 2906 1169 2906 1791 
z
M 3481 434 
Q 3481 -459 3084 -895 
Q 2688 -1331 1869 -1331 
Q 1566 -1331 1297 -1286 
Q 1028 -1241 775 -1147 
L 775 -588 
Q 1028 -725 1275 -790 
Q 1522 -856 1778 -856 
Q 2344 -856 2625 -561 
Q 2906 -266 2906 331 
L 2906 616 
Q 2728 306 2450 153 
Q 2172 0 1784 0 
Q 1141 0 747 490 
Q 353 981 353 1791 
Q 353 2603 747 3093 
Q 1141 3584 1784 3584 
Q 2172 3584 2450 3431 
Q 2728 3278 2906 2969 
L 2906 3500 
L 3481 3500 
L 3481 434 
z
" transform="scale(0.015625)"/>
      </defs>
      <use xlink:href="#DejaVuSans-4a"/>
      <use xlink:href="#DejaVuSans-61" transform="translate(29.492188 0)"/>
      <use xlink:href="#DejaVuSans-65" transform="translate(90.771484 0)"/>
      <use xlink:href="#DejaVuSans-67" transform="translate(152.294922 0)"/>
      <use xlink:href="#DejaVuSans-65" transform="translate(215.771484 0)"/>
      <use xlink:href="#DejaVuSans-72" transform="translate(277.294922 0)"/>
     </g>
    </g>
   </g>
   <g id="text_12">
    <g id="patch_21">
     <path d="M 346.763395 432.102367 
L 411.296207 432.102367 
Q 413.816207 432.102367 413.816207 429.582367 
L 413.816207 420.872054 
Q 413.816207 418.352054 411.296207 418.352054 
L 346.763395 418.352054 
Q 344.243395 418.352054 344.243395 420.872054 
L 344.243395 429.582367 
Q 344.243395 432.102367 346.763395 432.102367 
z
" clip-path="url(#pd64299aab3)" style="fill: #ffffff; opacity: 0.95; stroke: #cbd5e0; stroke-linejoin: miter"/>
    </g>
    <g clip-path="url(#pd64299aab3)">
     <!-- WeatherAgent -->
     <g style="fill: #172033" transform="translate(346.763395 427.710648) scale(0.09 -0.09)">
      <use xlink:href="#DejaVuSans-57"/>
      <use xlink:href="#DejaVuSans-65" transform="translate(93.001953 0)"/>
      <use xlink:href="#DejaVuSans-61" transform="translate(154.525391 0)"/>
      <use xlink:href="#DejaVuSans-74" transform="translate(215.804688 0)"/>
      <use xlink:href="#DejaVuSans-68" transform="translate(255.013672 0)"/>
      <use xlink:href="#DejaVuSans-65" transform="translate(318.392578 0)"/>
      <use xlink:href="#DejaVuSans-72" transform="translate(379.916016 0)"/>
      <use xlink:href="#DejaVuSans-41" transform="translate(421.029297 0)"/>
      <use xlink:href="#DejaVuSans-67" transform="translate(489.4375 0)"/>
      <use xlink:href="#DejaVuSans-65" transform="translate(552.914062 0)"/>
      <use xlink:href="#DejaVuSans-6e" transform="translate(614.4375 0)"/>
      <use xlink:href="#DejaVuSans-74" transform="translate(677.816406 0)"/>
     </g>
    </g>
   </g>
   <g id="text_13">
    <g id="patch_22">
     <path d="M 362.35027 566.296767 
L 395.709332 566.296767 
Q 398.229332 566.296767 398.229332 563.776767 
L 398.229332 555.066454 
Q 398.229332 552.546454 395.709332 552.546454 
L 362.35027 552.546454 
Q 359.83027 552.546454 359.83027 555.066454 
L 359.83027 563.776767 
Q 359.83027 566.296767 362.35027 566.296767 
z
" clip-path="url(#pd64299aab3)" style="fill: #ffffff; opacity: 0.95; stroke: #cbd5e0; stroke-linejoin: miter"/>
    </g>
    <g clip-path="url(#pd64299aab3)">
     <!-- wagent -->
     <g style="fill: #172033" transform="translate(362.35027 561.905048) scale(0.09 -0.09)">
      <use xlink:href="#DejaVuSans-77"/>
      <use xlink:href="#DejaVuSans-61" transform="translate(81.787109 0)"/>
      <use xlink:href="#DejaVuSans-67" transform="translate(143.066406 0)"/>
      <use xlink:href="#DejaVuSans-65" transform="translate(206.542969 0)"/>
      <use xlink:href="#DejaVuSans-6e" transform="translate(268.066406 0)"/>
      <use xlink:href="#DejaVuSans-74" transform="translate(331.445312 0)"/>
     </g>
    </g>
   </g>
   <g id="text_14">
    <g id="patch_23">
     <path d="M 761.248769 124.910367 
L 824.977207 124.910367 
Q 827.497207 124.910367 827.497207 122.390367 
L 827.497207 113.680054 
Q 827.497207 111.160054 824.977207 111.160054 
L 761.248769 111.160054 
Q 758.728769 111.160054 758.728769 113.680054 
L 758.728769 122.390367 
Q 758.728769 124.910367 761.248769 124.910367 
z
" clip-path="url(#pd64299aab3)" style="fill: #ffffff; opacity: 0.95; stroke: #cbd5e0; stroke-linejoin: miter"/>
    </g>
    <g clip-path="url(#pd64299aab3)">
     <!-- DisasterAgent -->
     <g style="fill: #172033" transform="translate(761.248769 120.518648) scale(0.09 -0.09)">
      <defs>
       <path id="DejaVuSans-44" d="M 1259 4147 
L 1259 519 
L 2022 519 
Q 2988 519 3436 956 
Q 3884 1394 3884 2338 
Q 3884 3275 3436 3711 
Q 2988 4147 2022 4147 
L 1259 4147 
z
M 628 4666 
L 1925 4666 
Q 3281 4666 3915 4102 
Q 4550 3538 4550 2338 
Q 4550 1131 3912 565 
Q 3275 0 1925 0 
L 628 0 
L 628 4666 
z
" transform="scale(0.015625)"/>
      </defs>
      <use xlink:href="#DejaVuSans-44"/>
      <use xlink:href="#DejaVuSans-69" transform="translate(77.001953 0)"/>
      <use xlink:href="#DejaVuSans-73" transform="translate(104.785156 0)"/>
      <use xlink:href="#DejaVuSans-61" transform="translate(156.884766 0)"/>
      <use xlink:href="#DejaVuSans-73" transform="translate(218.164062 0)"/>
      <use xlink:href="#DejaVuSans-74" transform="translate(270.263672 0)"/>
      <use xlink:href="#DejaVuSans-65" transform="translate(309.472656 0)"/>
      <use xlink:href="#DejaVuSans-72" transform="translate(370.996094 0)"/>
      <use xlink:href="#DejaVuSans-41" transform="translate(412.109375 0)"/>
      <use xlink:href="#DejaVuSans-67" transform="translate(480.517578 0)"/>
      <use xlink:href="#DejaVuSans-65" transform="translate(543.994141 0)"/>
      <use xlink:href="#DejaVuSans-6e" transform="translate(605.517578 0)"/>
      <use xlink:href="#DejaVuSans-74" transform="translate(668.896484 0)"/>
     </g>
    </g>
   </g>
   <g id="text_15">
    <g id="patch_24">
     <path d="M 777.256816 259.104767 
L 808.96916 259.104767 
Q 811.48916 259.104767 811.48916 256.584767 
L 811.48916 247.874454 
Q 811.48916 245.354454 808.96916 245.354454 
L 777.256816 245.354454 
Q 774.736816 245.354454 774.736816 247.874454 
L 774.736816 256.584767 
Q 774.736816 259.104767 777.256816 259.104767 
z
" clip-path="url(#pd64299aab3)" style="fill: #ffffff; opacity: 0.95; stroke: #cbd5e0; stroke-linejoin: miter"/>
    </g>
    <g clip-path="url(#pd64299aab3)">
     <!-- dagent -->
     <g style="fill: #172033" transform="translate(777.256816 254.713048) scale(0.09 -0.09)">
      <use xlink:href="#DejaVuSans-64"/>
      <use xlink:href="#DejaVuSans-61" transform="translate(63.476562 0)"/>
      <use xlink:href="#DejaVuSans-67" transform="translate(124.755859 0)"/>
      <use xlink:href="#DejaVuSans-65" transform="translate(188.232422 0)"/>
      <use xlink:href="#DejaVuSans-6e" transform="translate(249.755859 0)"/>
      <use xlink:href="#DejaVuSans-74" transform="translate(313.134766 0)"/>
     </g>
    </g>
   </g>
   <g id="text_16">
    <g id="patch_25">
     <path d="M 618.553175 375.639523 
L 674.715988 375.639523 
Q 677.235988 375.639523 677.235988 373.119523 
L 677.235988 364.158898 
Q 677.235988 361.638898 674.715988 361.638898 
L 618.553175 361.638898 
Q 616.033175 361.638898 616.033175 364.158898 
L 616.033175 373.119523 
Q 616.033175 375.639523 618.553175 375.639523 
z
" clip-path="url(#pd64299aab3)" style="fill: #ffffff; opacity: 0.95; stroke: #cbd5e0; stroke-linejoin: miter"/>
    </g>
    <g clip-path="url(#pd64299aab3)">
     <!-- get_weather -->
     <g style="fill: #172033" transform="translate(618.553175 370.997492) scale(0.09 -0.09)">
      <defs>
       <path id="DejaVuSans-5f" d="M 3263 -1063 
L 3263 -1509 
L -63 -1509 
L -63 -1063 
L 3263 -1063 
z
" transform="scale(0.015625)"/>
      </defs>
      <use xlink:href="#DejaVuSans-67"/>
      <use xlink:href="#DejaVuSans-65" transform="translate(63.476562 0)"/>
      <use xlink:href="#DejaVuSans-74" transform="translate(125 0)"/>
      <use xlink:href="#DejaVuSans-5f" transform="translate(164.208984 0)"/>
      <use xlink:href="#DejaVuSans-77" transform="translate(214.208984 0)"/>
      <use xlink:href="#DejaVuSans-65" transform="translate(295.996094 0)"/>
      <use xlink:href="#DejaVuSans-61" transform="translate(357.519531 0)"/>
      <use xlink:href="#DejaVuSans-74" transform="translate(418.798828 0)"/>
      <use xlink:href="#DejaVuSans-68" transform="translate(458.007812 0)"/>
      <use xlink:href="#DejaVuSans-65" transform="translate(521.386719 0)"/>
      <use xlink:href="#DejaVuSans-72" transform="translate(582.910156 0)"/>
     </g>
    </g>
   </g>
   <g id="text_17">
    <!-- Weather Retrieval: HTTP topology -->
    <g style="fill: #262626" transform="translate(7.2 20.117344) scale(0.17 -0.17)">
     <defs>
      <path id="DejaVuSans-Bold-57" d="M 191 4666 
L 1344 4666 
L 2150 1275 
L 2950 4666 
L 4109 4666 
L 4909 1275 
L 5716 4666 
L 6859 4666 
L 5759 0 
L 4372 0 
L 3525 3547 
L 2688 0 
L 1300 0 
L 191 4666 
z
" transform="scale(0.015625)"/>
      <path id="DejaVuSans-Bold-65" d="M 4031 1759 
L 4031 1441 
L 1416 1441 
Q 1456 1047 1700 850 
Q 1944 653 2381 653 
Q 2734 653 3104 758 
Q 3475 863 3866 1075 
L 3866 213 
Q 3469 63 3072 -14 
Q 2675 -91 2278 -91 
Q 1328 -91 801 392 
Q 275 875 275 1747 
Q 275 2603 792 3093 
Q 1309 3584 2216 3584 
Q 3041 3584 3536 3087 
Q 4031 2591 4031 1759 
z
M 2881 2131 
Q 2881 2450 2695 2645 
Q 2509 2841 2209 2841 
Q 1884 2841 1681 2658 
Q 1478 2475 1428 2131 
L 2881 2131 
z
" transform="scale(0.015625)"/>
      <path id="DejaVuSans-Bold-61" d="M 2106 1575 
Q 1756 1575 1579 1456 
Q 1403 1338 1403 1106 
Q 1403 894 1545 773 
Q 1688 653 1941 653 
Q 2256 653 2472 879 
Q 2688 1106 2688 1447 
L 2688 1575 
L 2106 1575 
z
M 3816 1997 
L 3816 0 
L 2688 0 
L 2688 519 
Q 2463 200 2181 54 
Q 1900 -91 1497 -91 
Q 953 -91 614 226 
Q 275 544 275 1050 
Q 275 1666 698 1953 
Q 1122 2241 2028 2241 
L 2688 2241 
L 2688 2328 
Q 2688 2594 2478 2717 
Q 2269 2841 1825 2841 
Q 1466 2841 1156 2769 
Q 847 2697 581 2553 
L 581 3406 
Q 941 3494 1303 3539 
Q 1666 3584 2028 3584 
Q 2975 3584 3395 3211 
Q 3816 2838 3816 1997 
z
" transform="scale(0.015625)"/>
      <path id="DejaVuSans-Bold-74" d="M 1759 4494 
L 1759 3500 
L 2913 3500 
L 2913 2700 
L 1759 2700 
L 1759 1216 
Q 1759 972 1856 886 
Q 1953 800 2241 800 
L 2816 800 
L 2816 0 
L 1856 0 
Q 1194 0 917 276 
Q 641 553 641 1216 
L 641 2700 
L 84 2700 
L 84 3500 
L 641 3500 
L 641 4494 
L 1759 4494 
z
" transform="scale(0.015625)"/>
      <path id="DejaVuSans-Bold-68" d="M 4056 2131 
L 4056 0 
L 2931 0 
L 2931 347 
L 2931 1625 
Q 2931 2084 2911 2256 
Q 2891 2428 2841 2509 
Q 2775 2619 2662 2680 
Q 2550 2741 2406 2741 
Q 2056 2741 1856 2470 
Q 1656 2200 1656 1722 
L 1656 0 
L 538 0 
L 538 4863 
L 1656 4863 
L 1656 2988 
Q 1909 3294 2193 3439 
Q 2478 3584 2822 3584 
Q 3428 3584 3742 3212 
Q 4056 2841 4056 2131 
z
" transform="scale(0.015625)"/>
      <path id="DejaVuSans-Bold-72" d="M 3138 2547 
Q 2991 2616 2845 2648 
Q 2700 2681 2553 2681 
Q 2122 2681 1889 2404 
Q 1656 2128 1656 1613 
L 1656 0 
L 538 0 
L 538 3500 
L 1656 3500 
L 1656 2925 
Q 1872 3269 2151 3426 
Q 2431 3584 2822 3584 
Q 2878 3584 2943 3579 
Q 3009 3575 3134 3559 
L 3138 2547 
z
" transform="scale(0.015625)"/>
      <path id="DejaVuSans-Bold-20" transform="scale(0.015625)"/>
      <path id="DejaVuSans-Bold-52" d="M 2297 2597 
Q 2675 2597 2839 2737 
Q 3003 2878 3003 3200 
Q 3003 3519 2839 3656 
Q 2675 3794 2297 3794 
L 1791 3794 
L 1791 2597 
L 2297 2597 
z
M 1791 1766 
L 1791 0 
L 588 0 
L 588 4666 
L 2425 4666 
Q 3347 4666 3776 4356 
Q 4206 4047 4206 3378 
Q 4206 2916 3982 2619 
Q 3759 2322 3309 2181 
Q 3556 2125 3751 1926 
Q 3947 1728 4147 1325 
L 4800 0 
L 3519 0 
L 2950 1159 
Q 2778 1509 2601 1637 
Q 2425 1766 2131 1766 
L 1791 1766 
z
" transform="scale(0.015625)"/>
      <path id="DejaVuSans-Bold-69" d="M 538 3500 
L 1656 3500 
L 1656 0 
L 538 0 
L 538 3500 
z
M 538 4863 
L 1656 4863 
L 1656 3950 
L 538 3950 
L 538 4863 
z
" transform="scale(0.015625)"/>
      <path id="DejaVuSans-Bold-76" d="M 97 3500 
L 1216 3500 
L 2088 1081 
L 2956 3500 
L 4078 3500 
L 2700 0 
L 1472 0 
L 97 3500 
z
" transform="scale(0.015625)"/>
      <path id="DejaVuSans-Bold-6c" d="M 538 4863 
L 1656 4863 
L 1656 0 
L 538 0 
L 538 4863 
z
" transform="scale(0.015625)"/>
      <path id="DejaVuSans-Bold-3a" d="M 716 3500 
L 1844 3500 
L 1844 2291 
L 716 2291 
L 716 3500 
z
M 716 1209 
L 1844 1209 
L 1844 0 
L 716 0 
L 716 1209 
z
" transform="scale(0.015625)"/>
      <path id="DejaVuSans-Bold-48" d="M 588 4666 
L 1791 4666 
L 1791 2888 
L 3566 2888 
L 3566 4666 
L 4769 4666 
L 4769 0 
L 3566 0 
L 3566 1978 
L 1791 1978 
L 1791 0 
L 588 0 
L 588 4666 
z
" transform="scale(0.015625)"/>
      <path id="DejaVuSans-Bold-54" d="M 31 4666 
L 4331 4666 
L 4331 3756 
L 2784 3756 
L 2784 0 
L 1581 0 
L 1581 3756 
L 31 3756 
L 31 4666 
z
" transform="scale(0.015625)"/>
      <path id="DejaVuSans-Bold-50" d="M 588 4666 
L 2584 4666 
Q 3475 4666 3951 4270 
Q 4428 3875 4428 3144 
Q 4428 2409 3951 2014 
Q 3475 1619 2584 1619 
L 1791 1619 
L 1791 0 
L 588 0 
L 588 4666 
z
M 1791 3794 
L 1791 2491 
L 2456 2491 
Q 2806 2491 2997 2661 
Q 3188 2831 3188 3144 
Q 3188 3456 2997 3625 
Q 2806 3794 2456 3794 
L 1791 3794 
z
" transform="scale(0.015625)"/>
      <path id="DejaVuSans-Bold-6f" d="M 2203 2784 
Q 1831 2784 1636 2517 
Q 1441 2250 1441 1747 
Q 1441 1244 1636 976 
Q 1831 709 2203 709 
Q 2569 709 2762 976 
Q 2956 1244 2956 1747 
Q 2956 2250 2762 2517 
Q 2569 2784 2203 2784 
z
M 2203 3584 
Q 3106 3584 3614 3096 
Q 4122 2609 4122 1747 
Q 4122 884 3614 396 
Q 3106 -91 2203 -91 
Q 1297 -91 786 396 
Q 275 884 275 1747 
Q 275 2609 786 3096 
Q 1297 3584 2203 3584 
z
" transform="scale(0.015625)"/>
      <path id="DejaVuSans-Bold-70" d="M 1656 506 
L 1656 -1331 
L 538 -1331 
L 538 3500 
L 1656 3500 
L 1656 2988 
Q 1888 3294 2169 3439 
Q 2450 3584 2816 3584 
Q 3463 3584 3878 3070 
Q 4294 2556 4294 1747 
Q 4294 938 3878 423 
Q 3463 -91 2816 -91 
Q 2450 -91 2169 54 
Q 1888 200 1656 506 
z
M 2400 2772 
Q 2041 2772 1848 2508 
Q 1656 2244 1656 1747 
Q 1656 1250 1848 986 
Q 2041 722 2400 722 
Q 2759 722 2948 984 
Q 3138 1247 3138 1747 
Q 3138 2247 2948 2509 
Q 2759 2772 2400 2772 
z
" transform="scale(0.015625)"/>
      <path id="DejaVuSans-Bold-67" d="M 2919 594 
Q 2688 288 2409 144 
Q 2131 0 1766 0 
Q 1125 0 706 504 
Q 288 1009 288 1791 
Q 288 2575 706 3076 
Q 1125 3578 1766 3578 
Q 2131 3578 2409 3434 
Q 2688 3291 2919 2981 
L 2919 3500 
L 4044 3500 
L 4044 353 
Q 4044 -491 3511 -936 
Q 2978 -1381 1966 -1381 
Q 1638 -1381 1331 -1331 
Q 1025 -1281 716 -1178 
L 716 -306 
Q 1009 -475 1290 -558 
Q 1572 -641 1856 -641 
Q 2406 -641 2662 -400 
Q 2919 -159 2919 353 
L 2919 594 
z
M 2181 2772 
Q 1834 2772 1640 2515 
Q 1447 2259 1447 1791 
Q 1447 1309 1634 1061 
Q 1822 813 2181 813 
Q 2531 813 2725 1069 
Q 2919 1325 2919 1791 
Q 2919 2259 2725 2515 
Q 2531 2772 2181 2772 
z
" transform="scale(0.015625)"/>
      <path id="DejaVuSans-Bold-79" d="M 78 3500 
L 1197 3500 
L 2138 1125 
L 2938 3500 
L 4056 3500 
L 2584 -331 
Q 2363 -916 2067 -1148 
Q 1772 -1381 1288 -1381 
L 641 -1381 
L 641 -647 
L 991 -647 
Q 1275 -647 1404 -556 
Q 1534 -466 1606 -231 
L 1638 -134 
L 78 3500 
z
" transform="scale(0.015625)"/>
     </defs>
     <use xlink:href="#DejaVuSans-Bold-57"/>
     <use xlink:href="#DejaVuSans-Bold-65" transform="translate(106.677734 0)"/>
     <use xlink:href="#DejaVuSans-Bold-61" transform="translate(174.5 0)"/>
     <use xlink:href="#DejaVuSans-Bold-74" transform="translate(241.980469 0)"/>
     <use xlink:href="#DejaVuSans-Bold-68" transform="translate(289.783203 0)"/>
     <use xlink:href="#DejaVuSans-Bold-65" transform="translate(360.974609 0)"/>
     <use xlink:href="#DejaVuSans-Bold-72" transform="translate(428.796875 0)"/>
     <use xlink:href="#DejaVuSans-Bold-20" transform="translate(478.113281 0)"/>
     <use xlink:href="#DejaVuSans-Bold-52" transform="translate(512.927734 0)"/>
     <use xlink:href="#DejaVuSans-Bold-65" transform="translate(589.929688 0)"/>
     <use xlink:href="#DejaVuSans-Bold-74" transform="translate(657.751953 0)"/>
     <use xlink:href="#DejaVuSans-Bold-72" transform="translate(705.554688 0)"/>
     <use xlink:href="#DejaVuSans-Bold-69" transform="translate(754.871094 0)"/>
     <use xlink:href="#DejaVuSans-Bold-65" transform="translate(789.148438 0)"/>
     <use xlink:href="#DejaVuSans-Bold-76" transform="translate(856.970703 0)"/>
     <use xlink:href="#DejaVuSans-Bold-61" transform="translate(922.15625 0)"/>
     <use xlink:href="#DejaVuSans-Bold-6c" transform="translate(989.636719 0)"/>
     <use xlink:href="#DejaVuSans-Bold-3a" transform="translate(1023.914062 0)"/>
     <use xlink:href="#DejaVuSans-Bold-20" transform="translate(1063.904297 0)"/>
     <use xlink:href="#DejaVuSans-Bold-48" transform="translate(1098.71875 0)"/>
     <use xlink:href="#DejaVuSans-Bold-54" transform="translate(1182.410156 0)"/>
     <use xlink:href="#DejaVuSans-Bold-54" transform="translate(1252.873047 0)"/>
     <use xlink:href="#DejaVuSans-Bold-50" transform="translate(1321.085938 0)"/>
     <use xlink:href="#DejaVuSans-Bold-20" transform="translate(1394.376953 0)"/>
     <use xlink:href="#DejaVuSans-Bold-74" transform="translate(1429.191406 0)"/>
     <use xlink:href="#DejaVuSans-Bold-6f" transform="translate(1476.994141 0)"/>
     <use xlink:href="#DejaVuSans-Bold-70" transform="translate(1545.695312 0)"/>
     <use xlink:href="#DejaVuSans-Bold-6f" transform="translate(1617.277344 0)"/>
     <use xlink:href="#DejaVuSans-Bold-6c" transform="translate(1685.978516 0)"/>
     <use xlink:href="#DejaVuSans-Bold-6f" transform="translate(1720.255859 0)"/>
     <use xlink:href="#DejaVuSans-Bold-67" transform="translate(1788.957031 0)"/>
     <use xlink:href="#DejaVuSans-Bold-79" transform="translate(1860.539062 0)"/>
    </g>
   </g>
  </g>
 </g>
 <defs>
  <clipPath id="pd64299aab3">
   <rect x="7.2" y="36.117344" width="1414.08" height="808.4"/>
  </clipPath>
 </defs>
 <defs>
  <pattern id="hc2365f7093" patternUnits="userSpaceOnUse" x="0" y="0" width="72" height="72">
   <rect x="0" y="0" width="73" height="73" fill="#dbeafe"/>
   <path d="M -36 36 
L 36 -36 
M -32 40 
L 40 -32 
M -28 44 
L 44 -28 
M -24 48 
L 48 -24 
M -20 52 
L 52 -20 
M -16 56 
L 56 -16 
M -12 60 
L 60 -12 
M -8 64 
L 64 -8 
M -4 68 
L 68 -4 
M 0 72 
L 72 0 
M 4 76 
L 76 4 
M 8 80 
L 80 8 
M 12 84 
L 84 12 
M 16 88 
L 88 16 
M 20 92 
L 92 20 
M 24 96 
L 96 24 
M 28 100 
L 100 28 
M 32 104 
L 104 32 
M 36 108 
L 108 36 
" style="fill: #5f7f95; stroke: #5f7f95; stroke-width: 1.0; stroke-linecap: butt; stroke-linejoin: miter; stroke-opacity: 0.25"/>
  </pattern>
 </defs>
</svg>
